<?xml version="1.0" encoding="utf-8"?>
<!-- Generator: Adobe Illustrator 16.0.0, SVG Export Plug-In . SVG Version: 6.00 Build 0)  -->
<!DOCTYPE svg PUBLIC "-//W3C//DTD SVG 1.1//EN" "http://www.w3.org/Graphics/SVG/1.1/DTD/svg11.dtd">
<svg version="1.1" xmlns="http://www.w3.org/2000/svg" xmlns:xlink="http://www.w3.org/1999/xlink" x="0px" y="0px"
	 width="595.727px" height="97.437px" viewBox="0 0 595.727 97.437" enable-background="new 0 0 595.727 97.437"
	 xml:space="preserve">
<g id="logo">
	<g>
		<path fill="#FFFFFF" d="M14.016,28.189v48.387c0,0,27.625,0.515,39.121,14.242V42.603C53.137,42.603,43.529,28.189,14.016,28.189z
			 M43.529,73.487c-7.379-4.632-19.734-5.489-19.734-5.489V37.941c14.585,1.401,19.734,8.093,19.734,8.093V73.487z"/>
		<path fill="#FFFFFF" d="M53.137,38.485c0,0-10.294-10.982-29.341-12.526v-9.094C23.795,16.864,47.304,20.639,53.137,38.485z"/>
		<path fill="#FFFFFF" d="M52.279,31.622c0,0-6.005-8.924-15.271-12.87v-8.236C37.008,10.516,49.536,16.35,52.279,31.622z"/>
		<path fill="#FFFFFF" d="M57.083,42.603v48.216C68.58,77.091,96.207,76.576,96.207,76.576V28.189
			C66.693,28.189,57.083,42.603,57.083,42.603z M86.425,67.998c0,0-12.354,0.857-19.732,5.489V46.035c0,0,5.147-6.692,19.732-8.093
			V67.998z"/>
		<path fill="#FFFFFF" d="M57.083,38.485c0,0,10.297-10.982,29.342-12.526v-9.094C86.425,16.864,62.918,20.639,57.083,38.485z"/>
		<path fill="#FFFFFF" d="M57.943,31.622c0,0,6.004-8.924,15.271-12.87v-8.236C73.214,10.516,60.689,16.35,57.943,31.622z"/>
	</g>
	<path fill="#FFFFFF" d="M128.834,76.851c-2.525,0.214-4.189,0.375-4.995,0.483l0.564-5.317c2.309-0.429,3.867-1.087,4.673-1.974
		s1.208-2.377,1.208-4.472l0.081-31.581c0-1.503-0.189-2.55-0.564-3.142c-0.376-0.59-1.047-0.886-2.014-0.886
		c-0.538,0-1.075,0.028-1.611,0.081c-0.538,0.054-0.914,0.081-1.128,0.081l-0.564-0.645l0.725-4.834
		c0.858,0,2.429,0.028,4.713,0.081c2.282,0.054,4.417,0.081,6.405,0.081c2.041,0,4.323-0.053,6.848-0.161
		c2.524-0.107,4.296-0.188,5.317-0.242c5.531,0,9.748,1.075,12.648,3.223c2.9,2.149,4.351,5.237,4.351,9.265
		c0,2.686-0.765,5.063-2.296,7.13c-1.531,2.068-3.666,3.8-6.405,5.196c3.491,0.914,6.271,2.364,8.339,4.351
		c2.067,1.987,3.102,4.54,3.102,7.653c0,3.17-0.874,5.977-2.618,8.42c-1.746,2.443-4.189,4.338-7.332,5.68
		s-6.781,2.014-10.917,2.014c-0.645,0-1.531-0.055-2.659-0.161c-1.128-0.108-1.988-0.188-2.578-0.241
		c-0.699-0.055-1.772-0.135-3.223-0.242c-1.45-0.108-2.605-0.161-3.464-0.161C133.56,76.528,131.358,76.635,128.834,76.851z
		 M140.516,65.813c0,1.721,0.59,2.941,1.772,3.666c1.181,0.726,3.142,1.088,5.881,1.088c2.631,0,4.699-0.725,6.204-2.176
		c1.503-1.449,2.255-3.436,2.255-5.961c0-2.201-0.712-4.041-2.135-5.52c-1.424-1.477-3.478-2.51-6.163-3.102l-7.493,0.081
		L140.516,65.813z M144.867,47.283c1.934,0.215,3.223,0.322,3.867,0.322c0,0.108,0.523-0.174,1.571-0.846
		c1.047-0.671,1.986-1.652,2.82-2.941c0.832-1.289,1.249-2.927,1.249-4.914c0-2.739-0.914-4.753-2.739-6.042
		c-1.827-1.289-4.673-1.934-8.54-1.934c-0.538,0-0.9,0.108-1.087,0.322c-0.189,0.215-0.31,0.618-0.363,1.208
		c-0.322,4.351-0.538,9.158-0.645,14.421C141.644,46.935,142.933,47.069,144.867,47.283z"/>
	<path fill="#FFFFFF" d="M300.645,30.808c-0.374-0.564-1.15-0.846-2.331-0.846l-2.417,0.081l-0.403-0.645l0.564-4.753l10.78,0.161
		c1.451,0,3.438-0.081,5.963-0.242c2.523-0.161,4.189-0.268,4.994-0.322l-0.402,5.317c-1.988,0.376-3.331,0.874-4.028,1.49
		c-0.698,0.618-1.075,1.68-1.128,3.183l-0.806,31.662c-0.054,2.203,0.147,3.68,0.604,4.431c0.455,0.754,1.301,1.129,2.537,1.129
		c0.807,0,1.49-0.027,2.055-0.081c0.564-0.053,0.927-0.106,1.088-0.161l0.402,0.483l-0.725,5.075c-0.859,0-2.457-0.04-4.793-0.121
		c-2.337-0.08-4.58-0.12-6.729-0.12c-2.416,0-4.679,0.026-6.792,0.081c-2.122,0.053-3.559,0.106-4.31,0.16l0.725-5.075
		c1.611-0.214,2.82-0.523,3.625-0.927c0.805-0.402,1.352-1.02,1.646-1.853c0.293-0.832,0.441-2.026,0.441-3.585V34.151
		C301.207,32.487,301.019,31.372,300.645,30.808z M325.289,36.327c1.45-1.557,2.175-2.9,2.175-4.028c0-0.751-0.35-1.33-1.047-1.732
		c-0.699-0.403-1.801-0.63-3.303-0.685l-0.242-0.564l0.645-4.915c0.752,0.054,2.256,0.135,4.512,0.242
		c2.256,0.108,4.081,0.161,5.479,0.161c1.824,0,3.666-0.04,5.518-0.121c1.854-0.081,3.129-0.147,3.828-0.202l0.482,0.886
		l-0.645,4.512c-1.611,0.645-3.155,1.611-4.632,2.9c-1.478,1.289-3.397,3.331-5.761,6.123l-8.701,9.667l10.877,16.274
		c1.664,2.471,3.182,4.243,4.551,5.317c1.37,1.074,2.941,1.639,4.714,1.691l0.483,0.725l-0.645,4.189
		c-0.806,0.107-2.404,0.295-4.794,0.564c-2.39,0.268-3.881,0.402-4.472,0.402c-1.611,0-3.142-0.551-4.592-1.65
		c-1.45-1.102-2.9-2.807-4.35-5.117L313.042,51.07l0.241-1.692L325.289,36.327z"/>
	<path fill="#FFFFFF" d="M359.125,74.434c-3.599-2.041-6.364-4.967-8.298-8.781c-1.934-3.813-2.9-8.324-2.9-13.535
		c0-5.692,1.154-10.661,3.464-14.904c2.309-4.242,5.6-7.533,9.869-9.869c4.271-2.336,9.225-3.505,14.865-3.505
		c1.986,0,4.121,0.148,6.404,0.443c2.282,0.296,4.229,0.604,5.841,0.926s2.631,0.538,3.062,0.645l0.483,1.047
		c-0.108,0.376-0.296,1.236-0.563,2.578c-0.27,1.343-0.564,3.142-0.887,5.398s-0.564,4.646-0.725,7.17l-7.654,0.483
		c0-0.214,0.027-0.711,0.08-1.49c0.054-0.778,0.081-1.678,0.081-2.699c0-2.363-0.726-4.095-2.175-5.197
		c-1.45-1.1-3.734-1.651-6.848-1.651c-4.244,0-7.48,1.504-9.709,4.512c-2.229,3.008-3.344,7.439-3.344,13.293
		c0,6.607,1.195,11.736,3.586,15.388c2.389,3.652,5.732,5.479,10.03,5.479c2.953,0,5.263-0.898,6.929-2.699
		c1.664-1.799,2.819-4.659,3.464-8.58l7.734-0.483c-0.161,0.913-0.442,2.928-0.846,6.042c-0.403,3.115-0.659,6.07-0.766,8.862
		l-0.806,0.967c0,0.054-0.9,0.362-2.699,0.927c-1.8,0.564-4.002,1.088-6.605,1.57c-2.606,0.484-5.386,0.726-8.339,0.726
		C366.967,77.495,362.723,76.476,359.125,74.434z"/>
	<path fill="#FFFFFF" d="M409.157,72.017c2.147-0.269,3.719-0.657,4.713-1.168c0.993-0.51,1.664-1.235,2.014-2.175
		s0.523-2.377,0.523-4.311v-2.498c0-1.449-0.16-2.766-0.482-3.947c-0.322-1.181-0.941-2.631-1.854-4.351l-7.895-15.307
		c-1.344-2.739-2.606-4.673-3.787-5.801c-1.182-1.128-2.98-1.906-5.398-2.336l-0.16-0.403l0.563-5.076
		c0.751,0,2.161,0.041,4.229,0.121c2.067,0.081,4.096,0.121,6.083,0.121c1.718,0,4.055-0.093,7.009-0.282
		c2.953-0.188,4.914-0.309,5.881-0.363l0.322,0.725l-0.402,4.512c-1.826,0.108-3.102,0.35-3.826,0.725
		c-0.726,0.376-1.088,0.967-1.088,1.772c0,1.021,1.824,5.452,5.479,13.293c1.073,2.471,1.583,3.653,1.53,3.545h0.726l6.525-13.535
		c0.806-1.611,1.209-2.873,1.209-3.787c0-0.59-0.337-1.034-1.008-1.33c-0.672-0.294-1.732-0.496-3.182-0.604l-0.162-0.403
		l0.564-4.592l3.867,0.161c2.9,0.108,5.156,0.161,6.768,0.161c1.502,0,3.113-0.04,4.834-0.121c1.718-0.081,2.819-0.147,3.303-0.202
		l0.322,0.564l-0.564,4.834c-2.148,0.699-3.854,1.746-5.115,3.142c-1.263,1.397-2.834,3.787-4.713,7.17l-7.654,14.421
		c-0.752,1.344-1.195,2.713-1.329,4.109c-0.135,1.396-0.201,3.947-0.201,7.652c0,1.773,0.269,3.021,0.806,3.747
		c0.536,0.726,1.503,1.087,2.9,1.087c0.967,0,1.813-0.025,2.537-0.08c0.726-0.053,1.222-0.107,1.49-0.161l0.322,0.403l-0.725,5.397
		c-0.967-0.054-2.767-0.121-5.397-0.202c-2.632-0.08-5.21-0.12-7.734-0.12c-1.934,0-4.271,0.12-7.009,0.362
		c-2.74,0.242-4.539,0.416-5.398,0.523L409.157,72.017z"/>
	<path fill="#FFFFFF" d="M458.704,74.434c-3.6-2.041-6.365-4.967-8.299-8.781c-1.934-3.813-2.9-8.324-2.9-13.535
		c0-5.692,1.154-10.661,3.465-14.904c2.309-4.242,5.6-7.533,9.869-9.869s9.225-3.505,14.864-3.505c1.986,0,4.121,0.148,6.405,0.443
		c2.281,0.296,4.229,0.604,5.84,0.926s2.631,0.538,3.063,0.645l0.482,1.047c-0.107,0.376-0.295,1.236-0.563,2.578
		c-0.27,1.343-0.563,3.142-0.886,5.398s-0.564,4.646-0.726,7.17l-7.653,0.483c0-0.214,0.026-0.711,0.08-1.49
		c0.053-0.778,0.08-1.678,0.08-2.699c0-2.363-0.725-4.095-2.174-5.197c-1.451-1.1-3.734-1.651-6.849-1.651
		c-4.243,0-7.479,1.504-9.708,4.512c-2.229,3.008-3.344,7.439-3.344,13.293c0,6.607,1.195,11.736,3.586,15.388
		c2.389,3.652,5.732,5.479,10.029,5.479c2.953,0,5.264-0.898,6.929-2.699c1.665-1.799,2.819-4.659,3.464-8.58l7.734-0.483
		c-0.16,0.913-0.442,2.928-0.846,6.042c-0.402,3.115-0.658,6.07-0.766,8.862l-0.805,0.967c0,0.054-0.9,0.362-2.699,0.927
		c-1.801,0.564-4.002,1.088-6.606,1.57c-2.606,0.484-5.386,0.726-8.339,0.726C466.544,77.495,462.301,76.476,458.704,74.434z"/>
	<path fill="#FFFFFF" d="M501.323,71.936c2.04-0.322,3.436-0.967,4.189-1.934c0.751-0.967,1.127-2.631,1.127-4.994l0.081-30.856
		c0-1.664-0.188-2.78-0.563-3.344c-0.377-0.564-1.156-0.846-2.337-0.846l-2.497,0.081l-0.403-0.645l0.645-4.673l10.796,0.081
		c1.503,0,3.691-0.081,6.566-0.242c2.872-0.161,4.766-0.268,5.68-0.322l-0.564,5.559c-1.826,0.215-3.156,0.523-3.988,0.926
		c-0.833,0.403-1.369,0.967-1.611,1.692c-0.241,0.725-0.416,1.867-0.523,3.424c-0.592,8.056-0.887,17.913-0.887,29.567
		c0,1.45,0.134,2.512,0.403,3.183c0.269,0.673,0.751,1.128,1.45,1.37c0.697,0.241,1.772,0.361,3.223,0.361
		c2.686,0,4.686-0.294,6.002-0.886c1.315-0.591,2.297-1.718,2.941-3.384c0.645-1.664,1.18-4.297,1.61-7.895l6.526-0.726l0.563,0.806
		c-0.161,1.021-0.471,3.316-0.927,6.889c-0.457,3.572-0.846,7.318-1.168,11.238l-0.806,0.806c-1.45-0.054-4.593-0.175-9.426-0.362
		c-4.834-0.189-9.212-0.282-13.132-0.282c-2.955,0-5.774,0.106-8.459,0.322c-2.688,0.214-4.405,0.375-5.156,0.483L501.323,71.936z"
		/>
	<path fill="#FFFFFF" d="M586.319,61.302c-0.859,4.188-1.585,9.157-2.176,14.904l-0.805,0.886
		c-10.26-0.376-18.611-0.563-25.057-0.563c-4.512,0-9.104,0.269-13.775,0.806l0.563-5.398c2.256-0.322,3.786-0.967,4.593-1.934
		c0.805-0.967,1.208-2.631,1.208-4.994l0.081-30.695c0-1.772-0.162-2.941-0.484-3.505s-1.021-0.846-2.094-0.846
		c-0.699,0-1.531,0.054-2.498,0.161l-0.483-0.725l0.645-4.834h1.611c3.813,0.161,8.137,0.242,12.971,0.242
		c11.977,0,20.142-0.322,24.491-0.967l0.645,0.886c-0.43,1.988-0.818,4.351-1.168,7.09s-0.578,5.237-0.685,7.493l-7.171,0.483
		l0.162-3.223c0-1.611-0.229-2.752-0.686-3.424c-0.457-0.671-1.369-1.128-2.738-1.37c-1.37-0.242-3.666-0.362-6.889-0.362
		c-1.397,0-2.364,0.054-2.9,0.161c-0.537,0.108-0.9,0.35-1.088,0.725c-0.188,0.376-0.31,0.995-0.362,1.853L561.667,46.8l7.572,0.081
		c1.129,0,2.538-0.066,4.23-0.201c1.691-0.133,3.396-0.309,5.115-0.524l0.645,0.725l-1.128,6.848c-0.698,0-1.235-0.026-1.611-0.08
		c-3.76-0.107-6.741-0.162-8.942-0.162c-1.666,0-3.734,0.162-6.203,0.484l-0.162,11.52c0,1.505,0.121,2.578,0.363,3.223
		s0.697,1.076,1.369,1.289c0.672,0.216,1.84,0.322,3.505,0.322c3.545,0,6.108-0.201,7.694-0.604
		c1.583-0.402,2.725-1.221,3.424-2.457c0.697-1.235,1.234-3.275,1.611-6.123l6.605-0.564L586.319,61.302z"/>
</g>
<g id="cycle_x5F_left">
	
		<circle fill="none" stroke="#FFFFFF" stroke-width="5" stroke-miterlimit="10" stroke-dasharray="11" cx="201.875" cy="50.667" r="24.828">
			<animateTransform attributeName="transform" attributeType="XML" type="rotate" from="0 201.875 50.667" to="360 201.875 50.667" dur="3s" repeatCount="indefinite"/>
		</circle>
</g>
<g id="cycle_x5F_right">
	
		<circle fill="none" stroke="#FFFFFF" stroke-width="5" stroke-miterlimit="10" stroke-dasharray="11" cx="263.501" cy="50.667" r="24.829">
			<animateTransform attributeName="transform" attributeType="XML" type="rotate" from="0 263.501 50.67" to="360 263.501 50.667" dur="4s" repeatCount="indefinite"/>
		</circle>

</g>
</svg>
