<?xml version="1.0" encoding="utf-8"?>
<!-- Generator: Adobe Illustrator 16.0.0, SVG Export Plug-In . SVG Version: 6.00 Build 0)  -->
<!DOCTYPE svg PUBLIC "-//W3C//DTD SVG 1.1//EN" "http://www.w3.org/Graphics/SVG/1.1/DTD/svg11.dtd">
<svg version="1.1" id="Layer_1" xmlns="http://www.w3.org/2000/svg" xmlns:xlink="http://www.w3.org/1999/xlink" x="0px" y="0px"
	 width="352.954px" height="226px" viewBox="0 0 352.954 226" enable-background="new 0 0 352.954 226" xml:space="preserve">
<g>
	<path fill="#F58728" d="M282.778,169.187c0,1.65-1.214,3.591-2.697,4.313l-101.146,49.213c-1.483,0.722-3.91,0.719-5.392-0.007
		L73.103,173.506c-1.482-0.726-2.694-2.669-2.694-4.319V30.124c0-1.65,1.109-2.23,2.464-1.289l4.788,3.325
		c1.355,0.941,2.464,3.061,2.464,4.711v126.413c0,1.65,1.208,3.602,2.686,4.336l91.096,45.308c1.478,0.734,3.9,0.746,5.385,0.024
		l93.347-45.356c1.484-0.722,2.698-2.661,2.698-4.312V35.695c0-1.65,1.081-3.809,2.401-4.798l2.639-1.976
		c1.32-0.989,2.401-0.448,2.401,1.202V169.187z"/>
	<path fill="none" stroke="#231F20" stroke-width="4" stroke-linecap="round" stroke-miterlimit="10" d="M282.778,169.187
		c0,1.65-1.214,3.591-2.697,4.313l-101.146,49.213c-1.483,0.722-3.91,0.719-5.392-0.007L73.103,173.506
		c-1.482-0.726-2.694-2.669-2.694-4.319V30.124c0-1.65,1.109-2.23,2.464-1.289l4.788,3.325c1.355,0.941,2.464,3.061,2.464,4.711
		v126.413c0,1.65,1.208,3.602,2.686,4.336l91.096,45.308c1.478,0.734,3.9,0.746,5.385,0.024l93.347-45.356
		c1.484-0.722,2.698-2.661,2.698-4.312V35.695c0-1.65,1.081-3.809,2.401-4.798l2.639-1.976c1.32-0.989,2.401-0.448,2.401,1.202
		V169.187z"/>
</g>
<line fill="none" stroke="#231F20" stroke-width="4" stroke-linecap="round" stroke-miterlimit="10" x1="149.932" y1="28.321" x2="120.108" y2="28.321"/>
<line fill="none" stroke="#231F20" stroke-width="4" stroke-linecap="round" stroke-miterlimit="10" x1="154.917" y1="13.269" x2="142.494" y2="5.429"/>
<line fill="none" stroke="#231F20" stroke-width="4" stroke-linecap="round" stroke-miterlimit="10" x1="206.818" y1="28.321" x2="236.646" y2="28.321"/>
<line fill="none" stroke="#231F20" stroke-width="4" stroke-linecap="round" stroke-miterlimit="10" x1="201.835" y1="13.269" x2="214.26" y2="5.429"/>
<g>
	<radialGradient id="SVGID_1_" cx="177.6528" cy="115.8867" r="88.9666" gradientUnits="userSpaceOnUse">
		<stop  offset="0" style="stop-color:#FFFFFF"/>
		<stop  offset="0.3954" style="stop-color:#FBFBFB"/>
		<stop  offset="0.8282" style="stop-color:#EDEEEF"/>
		<stop  offset="1" style="stop-color:#E6E7E8"/>
	</radialGradient>
	<path fill="url(#SVGID_1_)" d="M88.122,28.124c0-0.55,0.397-0.789,0.883-0.531l87.606,46.515c0.486,0.258,1.281,0.258,1.767,0.001
		L266.3,27.592c0.486-0.257,0.884-0.018,0.884,0.532v131.517c0,0.55-0.405,1.196-0.9,1.437l-88.791,43.03
		c-0.495,0.24-1.303,0.236-1.796-0.008l-86.68-43.015c-0.492-0.244-0.896-0.895-0.896-1.444V28.124z"/>
	<path fill="none" stroke="#231F20" stroke-width="3" stroke-miterlimit="10" d="M88.122,28.124c0-0.55,0.397-0.789,0.883-0.531
		l87.606,46.515c0.486,0.258,1.281,0.258,1.767,0.001L266.3,27.592c0.486-0.257,0.884-0.018,0.884,0.532v131.517
		c0,0.55-0.405,1.196-0.9,1.437l-88.791,43.03c-0.495,0.24-1.303,0.236-1.796-0.008l-86.68-43.015
		c-0.492-0.244-0.896-0.895-0.896-1.444V28.124z"/>
</g>
<path fill="#231F20" d="M161.756,49.52c0,16.62-10.446,21.951-10.446,21.951c-11.072,7.212-10.445,19.286-10.445,19.286h20.891
	V49.52z"/>
<g>
	<path fill="#26A9E0" d="M159.151,68.482v19.766h-2.474V70.759C157.618,69.95,158.436,69.197,159.151,68.482z"/>
</g>
<g>
	<path fill="#FFF100" d="M154.861,72.264v15.984h-2.475V74.183C153.281,73.515,154.108,72.876,154.861,72.264z"/>
</g>
<g>
	<path fill="#EC1C24" d="M150.27,75.773v12.475h-2.464V78.219C148.689,77.185,149.564,76.366,150.27,75.773z"/>
</g>
<path fill="#231F20" d="M193.361,49.52c0,16.62,10.446,21.951,10.446,21.951c11.074,7.212,10.447,19.286,10.447,19.286h-20.894
	V49.52z"/>
<line fill="none" stroke="#231F20" stroke-width="4" stroke-miterlimit="10" x1="165.234" y1="96.279" x2="189.955" y2="96.279"/>
<path fill="#00ADEE" d="M129.093,179.151c0-2.647,1.192-5.019,3.064-6.616c0.154-0.128,0.309-0.249,0.465-0.364
	c0.061-0.045,0.12-0.092,0.18-0.136c0.156-0.109,0.311-0.205,0.467-0.301c0.101-0.063,0.202-0.129,0.307-0.188
	c0.073-0.041,0.145-0.075,0.217-0.113c1.198-0.624,2.558-0.982,4-0.982v-0.028c1.313,0,2.208,0.302,2.284,0.328l1.485,0.545
	l-0.229-1.564c-0.103-0.701-0.156-1.42-0.156-2.14c0-8.041,6.541-14.582,14.582-14.582c4.397,0,8.516,1.956,11.3,5.366l0.551,0.654
	l0.963-0.612c3.681-2.167,7.879-3.318,12.176-3.318c8.425,0,16.343,4.499,20.668,11.741l0.419,0.702l0.755-0.318
	c1.705-0.722,3.374-1.043,5.413-1.043c8.046,0,16.041,6.813,16.041,14.854l-47.452,23.509l-47.5-23.571V179.151z"/>
<radialGradient id="SVGID_2_" cx="176.5688" cy="151.2188" r="73.0445" gradientUnits="userSpaceOnUse">
	<stop  offset="0" style="stop-color:#00ADEE"/>
	<stop  offset="0.2382" style="stop-color:#03A9EA"/>
	<stop  offset="0.4994" style="stop-color:#0A9BDE"/>
	<stop  offset="0.7706" style="stop-color:#1786CB"/>
	<stop  offset="1" style="stop-color:#266DB5"/>
</radialGradient>
<path fill="url(#SVGID_2_)" d="M262.419,163.105c3.254-5.06,3.495-11.483,0.632-16.766c-4.327-7.979-14.341-10.952-22.321-6.625
	c-2.813,1.525-5.062,3.789-6.565,6.528c-1.738-7.227-8.238-12.62-15.992-12.62c-2.342,0-4.662,0.505-6.779,1.461
	c-1.489-4.174-5.429-7.004-9.957-7.004c-5.818,0-10.556,4.72-10.583,10.531l-0.285,2.706l-0.006,0.1
	c0,1.531-1.247,2.778-2.779,2.778c-1.531,0-2.778-1.247-2.778-2.778V97.895h-15.263v43.522c0,1.531-1.246,2.778-2.778,2.778
	c-1.533,0-2.778-1.247-2.782-2.856l-0.226-2.677c0-5.835-4.748-10.582-10.584-10.582c-4.634,0-8.678,3.022-10.065,7.338
	c-2.306-1.176-4.866-1.795-7.475-1.795c-5.869,0-11.185,3.051-14.146,8.039c-2.979-2.542-6.716-3.94-10.67-3.94
	c-9.077,0-16.464,7.386-16.464,16.463c0,0.149,0.011,0.297,0.015,0.446c-1.74-1.641-4.01-2.682-6.47-2.862l0.025,8.872
	l88.471,43.903L262.419,163.105z"/>
<path fill="none" stroke="#231F20" stroke-width="4" stroke-miterlimit="10" d="M128.687,180.196c0-5.325,4.318-9.642,9.643-9.642"
	/>
<path fill="none" stroke="#231F20" stroke-width="4" stroke-miterlimit="10" d="M168.321,158.826
	c3.779-2.299,8.217-3.622,12.965-3.622c9.126,0,17.111,4.893,21.474,12.198c1.855-0.785,3.639-1.117,5.78-1.117
	c8.576,0,15.525,6.95,15.525,15.523"/>
<path fill="none" stroke="#231F20" stroke-width="4" stroke-linecap="round" stroke-miterlimit="10" d="M191.954,181.035
	c-1.146-7.441-7.58-13.14-15.341-13.14c-1.674,0-3.285,0.265-4.795,0.755v-0.014c0-8.573-6.951-15.522-15.523-15.522
	c-8.573,0-15.522,6.949-15.522,15.522c0,0.773,0.055,1.533,0.165,2.276c0,0-4.623-1.696-8.985,2.055"/>
<path fill="none" stroke="#231F20" stroke-width="4" stroke-linecap="round" stroke-miterlimit="10" d="M146.863,170.033
	c0.037-4.529,3.276-8.541,7.896-9.393"/>
<circle fill="#231F20" cx="149.782" cy="97.895" r="3.72"/>
<circle fill="#231F20" cx="122.036" cy="75.757" r="3.719"/>
<circle fill="#231F20" cx="199.038" cy="108.81" r="3.72"/>
<circle fill="#231F20" cx="225.197" cy="92.248" r="3.72"/>
<circle fill="#231F20" cx="228.917" cy="75.757" r="3.721"/>
<g>
	<path fill="none" stroke="#231F20" stroke-width="4" stroke-linecap="round" stroke-miterlimit="10" d="M96.135,157.213
		c-0.356-1.307-0.547-2.681-0.547-4.099c0-8.573,6.949-15.523,15.522-15.523c4.261,0,8.122,1.718,10.927,4.496"/>
	<path fill="none" stroke="#231F20" stroke-width="4" stroke-linecap="round" stroke-miterlimit="10" d="M120.823,152.615
		c-0.274-1.155-0.419-2.36-0.419-3.6c0-8.573,6.949-15.523,15.522-15.523c2.957,0,5.72,0.828,8.074,2.264
		c2.462,1.502,4.472,3.671,5.782,6.256"/>
	<path fill="none" stroke="#231F20" stroke-width="4" stroke-linecap="round" stroke-miterlimit="10" d="M204.489,141.855
		c1.438-2.761,3.682-5.035,6.422-6.512c2.188-1.182,4.694-1.852,7.354-1.852c8.574,0,15.525,6.95,15.525,15.523
		c0,1.071-0.108,2.117-0.316,3.127"/>
	<path fill="none" stroke="#231F20" stroke-width="4" stroke-linecap="round" stroke-miterlimit="10" d="M233.792,148.698
		c1.131-3.807,3.714-7.185,7.482-9.228c7.537-4.086,16.958-1.29,21.044,6.246c2.797,5.158,2.369,11.198-0.595,15.809"/>
	<path fill="none" stroke="#231F20" stroke-width="4" stroke-linecap="round" stroke-miterlimit="10" d="M128.295,151.389
		c0.037-4.529,3.276-8.541,7.896-9.393"/>
	<path fill="none" stroke="#231F20" stroke-width="4" stroke-linecap="round" stroke-miterlimit="10" d="M88.122,151.636
		c3.512,0.257,6.584,2.424,8.037,5.565"/>
	<path fill="none" stroke="#231F20" stroke-width="4" stroke-linecap="round" stroke-miterlimit="10" d="M210.913,135.348
		c-1.013-4.243-4.829-7.397-9.383-7.397c-5.324,0-9.641,4.316-9.641,9.641l-0.292,2.755c0,2.054-1.665,3.719-3.72,3.719
		c-2.054,0-3.719-1.665-3.719-3.719V78.593h-13.381v61.753c0,2.054-1.665,3.719-3.719,3.719c-2.054,0-3.721-1.665-3.721-3.719
		l-0.229-2.755c0-5.324-4.316-9.641-9.641-9.641c-4.697,0-8.61,3.357-9.466,7.806"/>
</g>
<path fill="#231F20" d="M163.126,179.568h-2.25v-2.5c0-0.834-1.015-1.511-2.268-1.511c-1.251,0-2.266,0.677-2.266,1.511v2.5h-2.109
	c-0.834,0-1.512,0.956-1.512,2.139c0,1.182,0.678,2.139,1.512,2.139h2.109v2.117c0,0.835,1.014,1.511,2.266,1.511
	c1.253,0,2.268-0.676,2.268-1.511v-2.117h2.25c0.836,0,1.512-0.957,1.512-2.139C164.638,180.524,163.962,179.568,163.126,179.568z"
	/>
<path fill="#231F20" d="M223.688,113.009h-2.253v-2.5c0-0.834-1.015-1.511-2.266-1.511c-1.253,0-2.268,0.677-2.268,1.511v2.5h-2.109
	c-0.834,0-1.51,0.956-1.51,2.139c0,1.182,0.676,2.139,1.51,2.139h2.109v2.117c0,0.835,1.015,1.511,2.268,1.511
	c1.251,0,2.266-0.676,2.266-1.511v-2.117h2.253c0.834,0,1.51-0.957,1.51-2.139C225.198,113.965,224.522,113.009,223.688,113.009z"/>
<path fill="#231F20" d="M107.302,88.793h-2.252v-2.5c0-0.834-1.015-1.512-2.266-1.512c-1.253,0-2.268,0.677-2.268,1.512v2.5h-2.109
	c-0.834,0-1.51,0.957-1.51,2.139c0,1.181,0.676,2.139,1.51,2.139h2.109v2.117c0,0.835,1.014,1.511,2.268,1.511
	c1.251,0,2.266-0.676,2.266-1.511v-2.117h2.252c0.834,0,1.511-0.958,1.511-2.139C108.813,89.75,108.136,88.793,107.302,88.793z"/>
<path fill="#231F20" d="M241.092,123.627h-2.253v-2.5c0-0.835-1.015-1.511-2.266-1.511c-1.253,0-2.268,0.676-2.268,1.511v2.5h-2.109
	c-0.834,0-1.51,0.956-1.51,2.14c0,1.181,0.676,2.139,1.51,2.139h2.109v2.116c0,0.834,1.015,1.511,2.268,1.511
	c1.251,0,2.266-0.677,2.266-1.511v-2.116h2.253c0.834,0,1.51-0.958,1.51-2.139C242.602,124.583,241.926,123.627,241.092,123.627z"/>
<path fill="#231F20" d="M137.194,109.102h-2.252v-2.5c0-0.834-1.013-1.511-2.266-1.511c-1.253,0-2.268,0.677-2.268,1.511v2.5h-2.109
	c-0.834,0-1.51,0.957-1.51,2.139c0,1.182,0.676,2.139,1.51,2.139h2.109v2.117c0,0.835,1.014,1.511,2.268,1.511
	c1.253,0,2.266-0.676,2.266-1.511v-2.117h2.252c0.834,0,1.51-0.957,1.51-2.139C138.705,110.058,138.029,109.102,137.194,109.102z"/>
<g>
	<path fill="#F1F1F2" d="M163.383,89.248c0-0.55,0.45-1,1-1h7.527c0.55,0,1,0.45,1,1v6.031c0,0.55-0.45,1-1,1h-7.527
		c-0.55,0-1-0.45-1-1V89.248z"/>
	<path fill="none" stroke="#231F20" stroke-width="4" stroke-miterlimit="10" d="M163.383,89.248c0-0.55,0.45-1,1-1h7.527
		c0.55,0,1,0.45,1,1v6.031c0,0.55-0.45,1-1,1h-7.527c-0.55,0-1-0.45-1-1V89.248z"/>
</g>
<g>
	<path fill="#FFFFFF" d="M172.911,89.248c0-0.55,0.45-1,1-1h7.524c0.55,0,1,0.45,1,1v6.031c0,0.55-0.45,1-1,1h-7.524
		c-0.55,0-1-0.45-1-1V89.248z"/>
	<path fill="none" stroke="#231F20" stroke-width="4" stroke-miterlimit="10" d="M172.911,89.248c0-0.55,0.45-1,1-1h7.524
		c0.55,0,1,0.45,1,1v6.031c0,0.55-0.45,1-1,1h-7.524c-0.55,0-1-0.45-1-1V89.248z"/>
</g>
<g>
	<path fill="#F1F1F2" d="M182.435,89.248c0-0.55,0.45-1,1-1h7.527c0.55,0,1,0.45,1,1v6.031c0,0.55-0.45,1-1,1h-7.527
		c-0.55,0-1-0.45-1-1V89.248z"/>
	<path fill="none" stroke="#231F20" stroke-width="4" stroke-miterlimit="10" d="M182.435,89.248c0-0.55,0.45-1,1-1h7.527
		c0.55,0,1,0.45,1,1v6.031c0,0.55-0.45,1-1,1h-7.527c-0.55,0-1-0.45-1-1V89.248z"/>
</g>
<g>
	<path fill="#D0D2D3" d="M85.67,162.37c1.348-0.951,3.661-1.13,5.139-0.396l83.096,41.235c1.478,0.733,3.902,0.743,5.385,0.021
		l84.881-41.278c1.484-0.722,3.821-0.563,5.194,0.352l3.475,2.315c1.373,0.915,1.282,2.254-0.202,2.976l-93.347,45.356
		c-1.484,0.722-3.907,0.71-5.385-0.024L82.811,167.62c-1.478-0.734-1.583-2.114-0.235-3.065L85.67,162.37z"/>
	<path fill="none" stroke="#231F20" stroke-width="4" stroke-linecap="round" stroke-miterlimit="10" d="M85.67,162.37
		c1.348-0.951,3.661-1.13,5.139-0.396l83.096,41.235c1.478,0.733,3.902,0.743,5.385,0.021l84.881-41.278
		c1.484-0.722,3.821-0.563,5.194,0.352l3.475,2.315c1.373,0.915,1.282,2.254-0.202,2.976l-93.347,45.356
		c-1.484,0.722-3.907,0.71-5.385-0.024L82.811,167.62c-1.478-0.734-1.583-2.114-0.235-3.065L85.67,162.37z"/>
</g>
<g>
	<path fill="#D0D2D3" d="M88.122,157.641c0,1.65-1.103,3.778-2.451,4.73l-3.095,2.184c-1.348,0.952-2.451,0.381-2.451-1.27V36.871
		c0-1.65,1.032-3.871,2.293-4.935l3.411-2.878c1.261-1.064,2.293-0.584,2.293,1.065V157.641z"/>
	<path fill="none" stroke="#231F20" stroke-width="4" stroke-miterlimit="10" d="M88.122,157.641c0,1.65-1.103,3.778-2.451,4.73
		l-3.095,2.184c-1.348,0.952-2.451,0.381-2.451-1.27V36.871c0-1.65,1.032-3.871,2.293-4.935l3.411-2.878
		c1.261-1.064,2.293-0.584,2.293,1.065V157.641z"/>
</g>
<g>
	<path fill="#D0D2D3" d="M275.336,163.284c0,1.65-1.11,2.231-2.467,1.292l-3.219-2.228c-1.356-0.939-2.467-3.058-2.467-4.708V30.124
		c0-1.65,1.114-2.238,2.477-1.307l3.199,2.186c1.362,0.931,2.477,3.043,2.477,4.693V163.284z"/>
	<path fill="none" stroke="#231F20" stroke-width="4" stroke-miterlimit="10" d="M275.336,163.284c0,1.65-1.11,2.231-2.467,1.292
		l-3.219-2.228c-1.356-0.939-2.467-3.058-2.467-4.708V30.124c0-1.65,1.114-2.238,2.477-1.307l3.199,2.186
		c1.362,0.931,2.477,3.043,2.477,4.693V163.284z"/>
</g>
<path fill="#FFFFFF" stroke="#231F20" stroke-width="4" stroke-miterlimit="10" d="M163.383,47.011"/>
<linearGradient id="SVGID_3_" gradientUnits="userSpaceOnUse" x1="163.3833" y1="45.8193" x2="191.979" y2="45.8193">
	<stop  offset="0" style="stop-color:#FFFFFF"/>
	<stop  offset="0.2306" style="stop-color:#FBFBFB"/>
	<stop  offset="0.4834" style="stop-color:#EDEEEE"/>
	<stop  offset="0.7458" style="stop-color:#D8D9DA"/>
	<stop  offset="1" style="stop-color:#BBBDBF"/>
</linearGradient>
<path fill="url(#SVGID_3_)" stroke="#231F20" stroke-width="4" stroke-miterlimit="10" d="M191.979,47.011V24.087
	c0,0-0.309-12.231-14.146-20.697h-0.378c-13.838,8.466-14.071,20.697-14.071,20.697v18.713l0.037,9.093l-0.037,4.704v31.65h28.579
	V48.719"/>
<line fill="none" stroke="#231F20" stroke-width="4" stroke-miterlimit="10" x1="191.962" y1="54.481" x2="191.962" y2="44.779"/>
<g>
	<path fill="#26A9E0" d="M195.599,68.482v19.766h2.475V70.759C197.133,69.95,196.314,69.197,195.599,68.482z"/>
</g>
<g>
	<path fill="#FFF100" d="M199.889,72.264v15.984h2.474V74.183C201.469,73.515,200.641,72.876,199.889,72.264z"/>
</g>
<g>
	<path fill="#EC1C24" d="M204.479,75.773v12.475h2.466V78.219C206.059,77.185,205.185,76.366,204.479,75.773z"/>
</g>
<path fill="none" stroke="#231F20" stroke-width="4" stroke-linecap="round" stroke-miterlimit="10" d="M171.466,28.321
	c0-3.308,2.681-5.987,5.988-5.987c3.307,0,5.989,2.68,5.989,5.987"/>
</svg>
