<?xml version="1.0" encoding="utf-8"?>
<!-- Generator: Adobe Illustrator 16.0.0, SVG Export Plug-In . SVG Version: 6.00 Build 0)  -->
<!DOCTYPE svg PUBLIC "-//W3C//DTD SVG 1.1//EN" "http://www.w3.org/Graphics/SVG/1.1/DTD/svg11.dtd">
<svg version="1.1" id="Layer_1" xmlns="http://www.w3.org/2000/svg" xmlns:xlink="http://www.w3.org/1999/xlink" x="0px" y="0px"
	 width="1920px" height="1080px" viewBox="0 0 1920 1080" enable-background="new 0 0 1920 1080" xml:space="preserve">
<path fill="#FFFFFF" d="M1466.503,635.595l99.717-438.75c7.199-31.679-16.88-61.845-49.366-61.845H688.329l-19.334-94.521
	C664.177,16.919,643.446,0,619.397,0H403.125C375.165,0,352.5,22.665,352.5,50.625v33.75c0,27.96,22.665,50.625,50.625,50.625
	h147.409l148.18,724.434c-35.45,20.387-59.339,58.613-59.339,102.441c0,65.238,52.887,118.125,118.125,118.125
	s118.125-52.887,118.125-118.125c0-33.063-13.6-62.934-35.488-84.375h442.225c-21.887,21.441-35.486,51.313-35.486,84.375
	c0,65.238,52.887,118.125,118.125,118.125s118.125-52.887,118.125-118.125c0-46.77-27.186-87.185-66.612-106.323l11.638-51.207
	c7.199-31.679-16.879-61.845-49.365-61.845H812.591L798.785,675h618.353C1440.775,675,1461.266,658.644,1466.503,635.595z"/>
</svg>
