<?xml version="1.0" encoding="utf-8"?>
<!-- Generator: Adobe Illustrator 16.0.0, SVG Export Plug-In . SVG Version: 6.00 Build 0)  -->
<!DOCTYPE svg PUBLIC "-//W3C//DTD SVG 1.1//EN" "http://www.w3.org/Graphics/SVG/1.1/DTD/svg11.dtd">
<svg version="1.1" id="Layer_1" xmlns="http://www.w3.org/2000/svg" xmlns:xlink="http://www.w3.org/1999/xlink" x="0px" y="0px"
	 width="352.954px" height="226px" viewBox="0 0 352.954 226" enable-background="new 0 0 352.954 226" xml:space="preserve">
<path fill="#E6E7E8" d="M197.945,120.443l66.515-4.514c0,0,8.08-23.07-3.096-38.515l-64.892,6.138L197.945,120.443z"/>
<g>
	<path fill="#B23025" d="M191.638,121.293l72.474-4.469l0.223-0.619c0.336-0.936,8.108-23.113-3.269-38.401l-0.336-0.45
		l-71.683,6.627l0.086-2.656l75.623-7.562c2.074,2.094,14.164,16.006,3.754,46.167l-76.598,4.32L191.638,121.293z"/>
	<g>
		<path fill="#31342B" d="M264.375,74.806c1.143,1.231,3.762,4.486,5.531,10.039c2.094,6.578,3.383,17.783-2.125,34.126
			l-74.965,4.229l-0.09-0.971l70.787-4.363l1.313-0.082l0.444-1.238c0.345-0.957,8.286-23.622-3.407-39.335l-0.67-0.901
			l-1.119,0.103l-69.994,6.471l0.021-0.648L264.375,74.806 M265.114,72.722l-76.951,7.695l-0.149,4.664l72.251-6.68
			c11.188,15.034,3.13,37.467,3.13,37.467l-72.847,4.491l0.459,4.943l78.229-4.412C281.342,86.583,265.114,72.722,265.114,72.722
			L265.114,72.722z"/>
	</g>
</g>
<line fill="none" stroke="#31342B" stroke-width="2" stroke-miterlimit="10" x1="196.473" y1="83.554" x2="197.945" y2="120.443"/>
<g>
	<path fill="#E04034" d="M270.5,119.775c9.328-26.493,0.242-41.503-3.485-46.193l62.881-4.003c1.013,0.771,5.899,5.378,6.757,22.866
		c0.866,17.69-3.958,22.188-4.854,22.862L270.5,119.775z"/>
	<g>
		<path fill="#31342B" d="M329.558,70.604c1.246,1.148,5.321,6.079,6.097,21.891c0.788,16.102-3.178,20.863-4.244,21.837
			l-59.475,4.336c7.88-23.708,1.102-38.2-3.034-44.204L329.558,70.604 M330.165,68.561l-65.25,4.154c0,0,16.258,15.531,4.119,48.17
			l63.098-4.6c0,0,6.525-3.335,5.521-23.889C336.646,71.854,330.165,68.561,330.165,68.561L330.165,68.561z"/>
	</g>
</g>
<g>
	<path fill="#006838" d="M280.834,119c7.765-23.392-0.246-41.069-2.996-46.105l4.771-0.304c11.242,19.863,4.984,42.093,3.729,46.028
		L280.834,119z"/>
	<path fill="#31342B" d="M282.045,73.627c10.119,18.454,5.074,38.901,3.543,44.04l-3.352,0.231
		c6.659-21.505,0.458-37.745-2.77-44.108L282.045,73.627 M283.168,71.552L276.155,72c0,0,13.323,19.815,3.242,48.102l7.682-0.531
		C287.079,119.568,296.325,94.113,283.168,71.552L283.168,71.552z"/>
</g>
<g>
	<path fill="#006838" d="M320.661,116.113c7.752-23.348-0.229-40.802-2.996-45.807l4.765-0.303
		c11.224,19.828,4.993,41.816,3.741,45.729L320.661,116.113z"/>
	<path fill="#31342B" d="M321.862,71.042c10.112,18.433,5.088,38.638,3.557,43.74l-3.354,0.231
		c6.645-21.441,0.479-37.489-2.759-43.81L321.862,71.042 M322.985,68.965l-7.014,0.446c0,0,13.332,19.515,3.252,47.803l7.682-0.53
		C326.905,116.684,336.142,91.527,322.985,68.965L322.985,68.965z"/>
</g>
<ellipse transform="matrix(-0.9986 0.0532 -0.0532 -0.9986 615.6833 172.1303)" fill="#242D3C" stroke="#31342B" stroke-width="2" stroke-miterlimit="10" cx="305.551" cy="94.258" rx="7.239" ry="15.831"/>
<line fill="none" stroke="#242D3C" stroke-width="2" stroke-miterlimit="10" x1="197.434" y1="107.556" x2="208.879" y2="106.68"/>
<line fill="none" stroke="#242D3C" stroke-width="2" stroke-miterlimit="10" x1="221.153" y1="105.389" x2="241.729" y2="104.015"/>
<line fill="none" stroke="#242D3C" stroke-width="2" stroke-miterlimit="10" x1="198.193" y1="112.744" x2="217.984" y2="111.226"/>
<line fill="none" stroke="#242D3C" stroke-width="2" stroke-miterlimit="10" x1="266.075" y1="91.169" x2="254.231" y2="91.819"/>
<rect x="187.566" y="169.686" fill="#718700" stroke="#31342B" stroke-width="2" stroke-miterlimit="10" width="41.998" height="34.25"/>
<rect x="229.564" y="169.686" fill="#F0ECCA" stroke="#31342B" stroke-width="2" stroke-miterlimit="10" width="48.5" height="34.25"/>
<rect x="278.064" y="169.686" fill="#718700" stroke="#31342B" stroke-width="2" stroke-miterlimit="10" width="72.75" height="34.25"/>
<line fill="none" stroke="#31342B" stroke-width="2" stroke-miterlimit="10" x1="234.083" y1="169.686" x2="234.083" y2="179.268"/>
<line fill="none" stroke="#31342B" stroke-width="2" stroke-miterlimit="10" x1="234.083" y1="184.625" x2="234.083" y2="203.936"/>
<line fill="none" stroke="#31342B" stroke-width="2" stroke-miterlimit="10" x1="234.083" y1="180.887" x2="234.083" y2="182.723"/>
<line fill="none" stroke="#31342B" stroke-width="2" stroke-miterlimit="10" x1="273.435" y1="203.936" x2="273.435" y2="192.895"/>
<line fill="none" stroke="#31342B" stroke-width="2" stroke-miterlimit="10" x1="273.435" y1="191.363" x2="273.435" y2="189.525"/>
<line fill="none" stroke="#31342B" stroke-width="2" stroke-miterlimit="10" x1="273.435" y1="187.842" x2="273.435" y2="169.686"/>
<ellipse fill="#FFFFFF" stroke="#31342B" stroke-miterlimit="10" cx="342.023" cy="171.855" rx="3.647" ry="1.635"/>
<ellipse fill="#FFFFFF" stroke="#31342B" stroke-miterlimit="10" cx="342.023" cy="175.123" rx="3.647" ry="1.635"/>
<ellipse fill="#FFFFFF" stroke="#31342B" stroke-miterlimit="10" cx="342.023" cy="178.391" rx="3.647" ry="1.635"/>
<ellipse fill="#FFFFFF" stroke="#31342B" stroke-miterlimit="10" cx="342.023" cy="181.658" rx="3.647" ry="1.635"/>
<ellipse fill="#FFFFFF" stroke="#31342B" stroke-miterlimit="10" cx="342.023" cy="184.926" rx="3.647" ry="1.635"/>
<ellipse fill="#FFFFFF" stroke="#31342B" stroke-miterlimit="10" cx="342.023" cy="188.193" rx="3.647" ry="1.635"/>
<ellipse fill="#FFFFFF" stroke="#31342B" stroke-miterlimit="10" cx="342.023" cy="191.461" rx="3.647" ry="1.635"/>
<ellipse fill="#FFFFFF" stroke="#31342B" stroke-miterlimit="10" cx="342.023" cy="194.729" rx="3.647" ry="1.635"/>
<ellipse fill="#FFFFFF" stroke="#31342B" stroke-miterlimit="10" cx="342.023" cy="197.996" rx="3.647" ry="1.635"/>
<ellipse fill="#FFFFFF" stroke="#31342B" stroke-miterlimit="10" cx="342.023" cy="201.264" rx="3.647" ry="1.635"/>
<ellipse fill="#FFFFFF" stroke="#31342B" stroke-miterlimit="10" cx="195.804" cy="171.855" rx="3.647" ry="1.635"/>
<ellipse fill="#FFFFFF" stroke="#31342B" stroke-miterlimit="10" cx="195.804" cy="175.123" rx="3.647" ry="1.635"/>
<ellipse fill="#FFFFFF" stroke="#31342B" stroke-miterlimit="10" cx="195.804" cy="178.391" rx="3.647" ry="1.635"/>
<ellipse fill="#FFFFFF" stroke="#31342B" stroke-miterlimit="10" cx="195.804" cy="181.658" rx="3.647" ry="1.635"/>
<ellipse fill="#FFFFFF" stroke="#31342B" stroke-miterlimit="10" cx="195.804" cy="184.926" rx="3.647" ry="1.635"/>
<ellipse fill="#FFFFFF" stroke="#31342B" stroke-miterlimit="10" cx="195.804" cy="188.193" rx="3.647" ry="1.635"/>
<ellipse fill="#FFFFFF" stroke="#31342B" stroke-miterlimit="10" cx="195.804" cy="191.461" rx="3.647" ry="1.635"/>
<ellipse fill="#FFFFFF" stroke="#31342B" stroke-miterlimit="10" cx="195.804" cy="194.729" rx="3.647" ry="1.635"/>
<ellipse fill="#FFFFFF" stroke="#31342B" stroke-miterlimit="10" cx="195.804" cy="197.996" rx="3.647" ry="1.635"/>
<ellipse fill="#FFFFFF" stroke="#31342B" stroke-miterlimit="10" cx="195.804" cy="201.264" rx="3.647" ry="1.635"/>
<polygon fill="#B23025" stroke="#000000" stroke-width="3" stroke-miterlimit="10" points="192.336,126.232 343.918,121.061 
	345.081,163.832 193.764,168.006 "/>
<polygon fill="none" stroke="#31342B" stroke-width="2" stroke-miterlimit="10" points="345.081,163.877 342.37,163.949 
	339.698,164.021 339.688,164.021 335.506,164.145 335.497,164.145 332.424,164.223 328.633,164.33 325.151,164.424 321.75,164.516 
	317.877,164.623 314.888,164.713 310.616,164.824 310.604,164.824 308.014,164.898 303.331,165.023 301.151,165.084 
	296.058,165.225 294.267,165.279 288.795,165.424 287.415,165.465 281.521,165.635 281.51,165.635 280.542,165.662 280.53,165.66 
	274.269,165.826 273.667,165.848 266.974,166.035 266.793,166.033 259.92,166.229 259.709,166.236 253.058,166.414 252.438,166.436 
	246.194,166.602 245.165,166.637 239.321,166.797 237.892,166.836 232.448,166.982 230.618,167.037 225.584,167.178 
	223.344,167.236 218.711,167.363 216.081,167.438 216.07,167.438 211.838,167.549 208.809,167.639 204.967,167.746 201.536,167.838 
	198.105,167.932 194.273,168.039 194.264,168.039 193.762,168.051 193.527,161.078 193.456,159.098 193.148,150.041 
	193.127,149.512 192.799,139.887 192.771,138.984 192.471,130.291 192.393,127.949 192.334,126.277 195.387,126.17 198.148,126.078 
	202.682,125.93 204.982,125.852 204.993,125.852 210.006,125.67 211.823,125.615 217.295,125.432 217.306,125.432 218.667,125.379 
	224.61,125.182 225.5,125.143 231.915,124.93 232.334,124.916 232.344,124.916 239.179,124.68 239.219,124.682 246.013,124.443 
	246.522,124.432 252.866,124.209 253.836,124.182 259.7,123.982 259.709,123.982 261.142,123.932 266.543,123.746 268.446,123.682 
	273.388,123.51 275.76,123.432 280.222,123.283 283.063,123.182 287.075,123.047 290.377,122.932 293.909,122.811 297.672,122.682 
	300.754,122.574 304.985,122.434 307.586,122.348 312.28,122.182 314.431,122.111 319.584,121.932 321.265,121.875 326.898,121.684 
	328.118,121.648 334.202,121.434 334.952,121.414 341.517,121.184 341.786,121.178 343.917,121.107 344.01,124.508 344.099,127.6 
	344.099,127.609 344.312,135.424 344.356,137.293 344.355,137.303 344.602,146.338 344.602,146.348 344.622,146.998 344.89,156.684 
	344.89,156.693 344.901,157.262 344.901,157.273 "/>
<polyline fill="none" stroke="#31342B" stroke-width="2" stroke-miterlimit="10" points="198.105,167.932 196.282,165.195 
	193.527,161.078 "/>
<polyline fill="none" stroke="#31342B" stroke-width="2" stroke-miterlimit="10" points="204.967,167.746 203.333,165.293 
	199.872,160.115 196.413,154.926 193.148,150.041 192.954,149.758 "/>
<polyline fill="none" stroke="#31342B" stroke-width="2" stroke-miterlimit="10" points="211.838,167.549 210.4,165.389 
	206.941,160.201 203.482,155.023 200.012,149.836 196.564,144.658 193.094,139.469 192.771,138.984 "/>
<polyline fill="none" stroke="#31342B" stroke-width="2" stroke-miterlimit="10" points="218.711,167.363 217.458,165.486 
	213.999,160.309 210.532,155.121 207.083,149.943 203.614,144.754 200.152,139.576 196.695,134.389 193.234,129.211 
	192.393,127.949 "/>
<polyline fill="none" stroke="#31342B" stroke-width="2" stroke-miterlimit="10" points="225.584,167.178 224.517,165.574 
	221.058,160.395 217.598,155.217 214.14,150.029 210.682,144.852 207.223,139.664 203.764,134.486 200.295,129.297 198.148,126.078 
	"/>
<polyline fill="none" stroke="#31342B" stroke-width="2" stroke-miterlimit="10" points="204.982,125.852 204.993,125.852 
	207.364,129.404 210.823,134.582 210.823,134.592 214.28,139.77 217.739,144.947 221.198,150.137 224.657,155.314 228.116,160.502 
	231.577,165.68 232.448,166.982 "/>
<polyline fill="none" stroke="#31342B" stroke-width="2" stroke-miterlimit="10" points="239.321,166.797 238.646,165.777 
	235.187,160.6 231.717,155.41 228.256,150.232 224.797,145.045 221.338,139.867 217.879,134.689 214.42,129.502 211.823,125.615 "/>
<polyline fill="none" stroke="#31342B" stroke-width="2" stroke-miterlimit="10" points="218.667,125.379 221.479,129.598 
	224.938,134.775 228.397,139.965 231.858,145.143 235.317,150.32 235.317,150.33 238.786,155.508 242.245,160.686 245.704,165.873 
	246.194,166.602 "/>
<polyline fill="none" stroke="#31342B" stroke-width="2" stroke-miterlimit="10" points="225.5,125.143 228.538,129.695 
	231.999,134.883 235.458,140.061 238.917,145.248 242.375,150.428 245.834,155.605 249.305,160.793 252.765,165.971 
	253.058,166.414 "/>
<polyline fill="none" stroke="#31342B" stroke-width="2" stroke-miterlimit="10" points="232.334,124.916 232.344,124.916 
	235.599,129.791 239.058,134.98 242.517,140.158 245.985,145.346 249.445,150.523 252.905,155.701 256.364,160.889 259.823,166.076 
	259.92,166.229 "/>
<polyline fill="none" stroke="#31342B" stroke-width="2" stroke-miterlimit="10" points="239.179,124.68 239.198,124.711 
	242.657,129.889 246.127,135.076 249.586,140.254 253.045,145.432 256.504,150.621 259.963,155.799 263.422,160.986 
	266.793,166.033 266.883,166.164 "/>
<polyline fill="none" stroke="#31342B" stroke-width="2" stroke-miterlimit="10" points="246.013,124.443 246.258,124.809 
	249.727,129.986 253.187,135.174 256.646,140.352 260.104,145.539 263.563,150.717 267.023,155.906 270.483,161.084 
	273.667,165.848 "/>
<polyline fill="none" stroke="#31342B" stroke-width="2" stroke-miterlimit="10" points="252.866,124.209 253.327,124.904 
	256.786,130.082 260.247,135.271 263.704,140.449 267.165,145.627 270.624,150.814 274.083,155.992 277.551,161.18 280.53,165.66 
	280.542,165.662 "/>
<polyline fill="none" stroke="#31342B" stroke-width="2" stroke-miterlimit="10" points="287.415,165.465 284.61,161.277 
	281.151,156.1 277.683,150.91 274.233,145.732 270.765,140.545 267.306,135.367 263.846,130.18 260.387,125.002 259.709,123.982 
	259.7,123.982 "/>
<polyline fill="none" stroke="#31342B" stroke-width="2" stroke-miterlimit="10" points="294.267,165.279 291.661,161.373 
	288.202,156.195 284.752,151.018 281.282,145.83 277.823,140.652 277.823,140.643 274.364,135.465 270.905,130.275 267.446,125.098 
	266.543,123.746 "/>
<polyline fill="none" stroke="#31342B" stroke-width="2" stroke-miterlimit="10" points="301.151,165.084 298.729,161.461 
	295.271,156.283 291.812,151.105 288.353,145.928 284.893,140.738 281.435,135.561 277.963,130.373 274.515,125.195 273.388,123.51 
	"/>
<polyline fill="none" stroke="#31342B" stroke-width="2" stroke-miterlimit="10" points="308.014,164.898 305.79,161.557 
	302.331,156.379 298.872,151.201 295.411,146.014 291.952,140.846 288.493,135.658 285.034,130.48 281.564,125.291 280.222,123.283 
	"/>
<polyline fill="none" stroke="#31342B" stroke-width="2" stroke-miterlimit="10" points="314.888,164.713 312.849,161.664 
	309.39,156.477 305.931,151.299 302.472,146.111 299.012,140.932 295.551,135.754 292.092,130.566 288.633,125.389 287.075,123.047 
	"/>
<polyline fill="none" stroke="#31342B" stroke-width="2" stroke-miterlimit="10" points="293.909,122.811 295.693,125.486 
	299.152,130.674 302.612,135.852 306.071,141.029 309.53,146.207 312.989,151.395 316.448,156.572 319.907,161.76 321.75,164.516 
	"/>
<polyline fill="none" stroke="#31342B" stroke-width="2" stroke-miterlimit="10" points="328.633,164.33 326.978,161.848 
	323.519,156.67 320.06,151.492 316.588,146.303 313.129,141.125 309.67,135.938 306.211,130.76 302.763,125.582 300.754,122.574 "/>
<polyline fill="none" stroke="#31342B" stroke-width="2" stroke-miterlimit="10" points="335.506,164.145 335.497,164.145 
	334.036,161.943 330.577,156.768 327.118,151.588 323.659,146.4 320.19,141.223 316.729,136.035 313.271,130.857 309.812,125.68 
	307.586,122.348 "/>
<polyline fill="none" stroke="#31342B" stroke-width="2" stroke-miterlimit="10" points="342.37,163.949 341.097,162.041 
	337.637,156.863 334.178,151.676 330.717,146.498 327.258,141.32 323.799,136.131 320.34,130.953 316.872,125.775 316.872,125.766 
	314.431,122.111 "/>
<polyline fill="none" stroke="#31342B" stroke-width="2" stroke-miterlimit="10" points="321.265,121.875 323.931,125.873 
	327.39,131.051 330.858,136.238 334.318,141.416 337.777,146.594 341.237,151.783 344.696,156.961 344.901,157.262 344.901,157.273 
	"/>
<polyline fill="none" stroke="#31342B" stroke-width="2" stroke-miterlimit="10" points="328.118,121.648 331,125.959 
	334.459,131.146 337.918,136.324 341.377,141.514 344.602,146.338 344.602,146.348 344.836,146.691 "/>
<polyline fill="none" stroke="#31342B" stroke-width="2" stroke-miterlimit="10" points="334.952,121.414 338.06,126.066 
	341.519,131.244 344.312,135.424 "/>
<polyline fill="none" stroke="#31342B" stroke-width="2" stroke-miterlimit="10" points="341.659,120.984 341.786,121.178 
	344.01,124.508 "/>
<polyline fill="none" stroke="#31342B" stroke-width="2" stroke-miterlimit="10" points="344.89,156.684 344.89,156.693 
	344.696,156.961 341.097,162.041 339.698,164.021 339.688,164.021 "/>
<polyline fill="none" stroke="#31342B" stroke-width="2" stroke-miterlimit="10" points="344.836,146.691 344.622,146.998 
	341.237,151.783 337.637,156.863 334.036,161.943 332.424,164.223 "/>
<polyline fill="none" stroke="#31342B" stroke-width="2" stroke-miterlimit="10" points="325.151,164.424 326.978,161.848 
	330.577,156.768 334.178,151.676 337.777,146.594 341.377,141.514 344.355,137.303 344.356,137.293 "/>
<polyline fill="none" stroke="#31342B" stroke-width="2" stroke-miterlimit="10" points="344.099,127.6 344.099,127.609 
	341.519,131.244 337.918,136.324 334.318,141.416 330.717,146.498 327.118,151.588 323.519,156.67 319.907,161.76 317.877,164.623 
	"/>
<polyline fill="none" stroke="#31342B" stroke-width="2" stroke-miterlimit="10" points="341.659,120.984 341.517,121.184 
	338.06,126.066 334.459,131.146 330.858,136.238 327.258,141.32 323.659,146.4 320.06,151.492 316.448,156.572 312.849,161.664 
	310.616,164.824 310.604,164.824 "/>
<polyline fill="none" stroke="#31342B" stroke-width="2" stroke-miterlimit="10" points="334.202,121.434 331,125.959 
	327.39,131.051 323.799,136.131 320.19,141.223 316.588,146.303 312.989,151.395 309.39,156.477 305.79,161.557 303.331,165.023 "/>
<polyline fill="none" stroke="#31342B" stroke-width="2" stroke-miterlimit="10" points="326.898,121.684 323.931,125.873 
	320.34,130.953 316.729,136.035 313.129,141.125 309.53,146.207 305.931,151.299 302.331,156.379 298.729,161.461 296.058,165.225 
	"/>
<polyline fill="none" stroke="#31342B" stroke-width="2" stroke-miterlimit="10" points="288.795,165.424 291.661,161.373 
	295.271,156.283 298.872,151.201 302.472,146.111 306.071,141.029 309.67,135.938 313.271,130.857 316.872,125.775 316.872,125.766 
	319.584,121.932 "/>
<polyline fill="none" stroke="#31342B" stroke-width="2" stroke-miterlimit="10" points="312.28,122.182 309.812,125.68 
	306.211,130.76 302.612,135.852 299.012,140.932 295.411,146.014 291.812,151.105 288.202,156.195 284.61,161.277 281.521,165.635 
	281.51,165.635 "/>
<polyline fill="none" stroke="#31342B" stroke-width="2" stroke-miterlimit="10" points="304.985,122.434 302.763,125.582 
	299.152,130.674 295.551,135.754 291.952,140.846 288.353,145.928 284.752,151.018 281.151,156.1 277.551,161.18 274.269,165.826 
	"/>
<polyline fill="none" stroke="#31342B" stroke-width="2" stroke-miterlimit="10" points="266.883,166.164 266.974,166.035 
	270.483,161.084 274.083,155.992 277.683,150.91 281.282,145.83 284.893,140.738 288.493,135.658 292.092,130.566 295.693,125.486 
	297.672,122.682 "/>
<polyline fill="none" stroke="#31342B" stroke-width="2" stroke-miterlimit="10" points="290.377,122.932 288.633,125.389 
	285.034,130.48 281.435,135.561 277.823,140.643 277.823,140.652 274.233,145.732 270.624,150.814 267.023,155.906 263.422,160.986 
	259.823,166.076 259.709,166.236 "/>
<polyline fill="none" stroke="#31342B" stroke-width="2" stroke-miterlimit="10" points="283.063,123.182 281.564,125.291 
	277.963,130.373 274.364,135.465 270.765,140.545 267.165,145.627 263.563,150.717 259.963,155.799 256.364,160.889 
	252.765,165.971 252.438,166.436 "/>
<polyline fill="none" stroke="#31342B" stroke-width="2" stroke-miterlimit="10" points="245.165,166.637 245.704,165.873 
	249.305,160.793 252.905,155.701 256.504,150.621 260.104,145.539 263.704,140.449 267.306,135.367 270.905,130.275 
	274.515,125.195 275.76,123.432 "/>
<polyline fill="none" stroke="#31342B" stroke-width="2" stroke-miterlimit="10" points="268.446,123.682 267.446,125.098 
	263.846,130.18 260.247,135.271 256.646,140.352 253.045,145.432 249.445,150.523 245.834,155.605 242.245,160.686 238.646,165.777 
	237.892,166.836 "/>
<polyline fill="none" stroke="#31342B" stroke-width="2" stroke-miterlimit="10" points="230.618,167.037 231.577,165.68 
	235.187,160.6 238.786,155.508 242.375,150.428 245.985,145.346 249.586,140.254 253.187,135.174 256.786,130.082 260.387,125.002 
	261.142,123.932 "/>
<polyline fill="none" stroke="#31342B" stroke-width="2" stroke-miterlimit="10" points="223.344,167.236 224.517,165.574 
	228.116,160.502 231.717,155.41 235.317,150.33 235.317,150.32 238.917,145.248 242.517,140.158 246.127,135.076 249.727,129.986 
	253.327,124.904 253.836,124.182 "/>
<polyline fill="none" stroke="#31342B" stroke-width="2" stroke-miterlimit="10" points="246.522,124.432 246.258,124.809 
	242.657,129.889 239.058,134.98 235.458,140.061 231.858,145.143 228.256,150.232 224.657,155.314 221.058,160.395 217.458,165.486 
	216.081,167.438 216.07,167.438 "/>
<polyline fill="none" stroke="#31342B" stroke-width="2" stroke-miterlimit="10" points="208.809,167.639 210.4,165.389 
	213.999,160.309 217.598,155.217 221.198,150.137 224.797,145.045 228.397,139.965 231.999,134.883 235.599,129.791 
	239.198,124.711 239.219,124.682 "/>
<polyline fill="none" stroke="#31342B" stroke-width="2" stroke-miterlimit="10" points="231.915,124.93 228.538,129.695 
	224.938,134.775 221.338,139.867 217.739,144.947 214.14,150.029 210.532,155.121 206.941,160.201 203.333,165.293 201.536,167.838 
	"/>
<polyline fill="none" stroke="#31342B" stroke-width="2" stroke-miterlimit="10" points="194.264,168.039 194.273,168.039 
	196.282,165.195 199.872,160.115 203.482,155.023 207.083,149.943 210.682,144.852 214.28,139.77 217.879,134.689 221.479,129.598 
	224.61,125.182 "/>
<polyline fill="none" stroke="#31342B" stroke-width="2" stroke-miterlimit="10" points="193.456,159.098 196.413,154.926 
	200.012,149.836 203.614,144.754 207.223,139.664 210.823,134.592 210.823,134.582 214.42,129.502 217.295,125.432 217.306,125.432 
	"/>
<polyline fill="none" stroke="#31342B" stroke-width="2" stroke-miterlimit="10" points="210.006,125.67 207.364,129.404 
	203.764,134.486 200.152,139.576 196.564,144.658 193.127,149.512 192.954,149.758 "/>
<polyline fill="none" stroke="#31342B" stroke-width="2" stroke-miterlimit="10" points="202.682,125.93 200.295,129.297 
	196.695,134.389 193.094,139.469 192.799,139.887 "/>
<polyline fill="none" stroke="#31342B" stroke-width="2" stroke-miterlimit="10" points="195.387,126.17 193.234,129.211 
	192.471,130.291 "/>
<rect x="298.989" y="119.857" transform="matrix(-0.9996 0.028 -0.028 -0.9996 606.1317 278.4667)" fill="#F68828" width="4.25" height="47.251"/>
<g>
	<path fill="#31342B" d="M301.118,121.348l1.241,44.232l-1.249,0.035l-1.242-44.232L301.118,121.348 M304.032,118.266l-7.246,0.203
		l1.409,50.229l7.247-0.203L304.032,118.266L304.032,118.266z"/>
</g>
<rect x="326.592" y="119.364" transform="matrix(-0.9997 0.0262 -0.0262 -0.9997 661.0659 277.3217)" fill="#F68828" width="4.25" height="47.255"/>
<g>
	<path fill="#31342B" d="M328.768,120.857l1.148,44.233l-1.25,0.032l-1.148-44.232L328.768,120.857 M331.688,117.781l-7.248,0.188
		l1.305,50.234l7.248-0.189L331.688,117.781L331.688,117.781z"/>
</g>
<rect x="224.567" y="128.014" transform="matrix(-0.9993 0.0382 -0.0382 -0.9993 482.3226 282.3768)" fill="#F68828" width="27.787" height="35.573"/>
<g>
	<path fill="#31342B" d="M250.221,129.053l1.248,32.547l-24.766,0.949l-1.25-32.547L250.221,129.053 M253.104,125.941l-30.764,1.178
		l1.479,38.543l30.764-1.18L253.104,125.941L253.104,125.941z"/>
</g>
<polygon fill="#F26B61" stroke="#31342B" stroke-width="2" stroke-miterlimit="10" points="135.786,77.742 148.006,37.559 
	180.786,47.525 168.553,87.708 "/>
<rect x="120.86" y="88.798" transform="matrix(-0.291 0.9567 -0.9567 -0.291 288.6749 -2.0833)" fill="#F0ECCA" stroke="#31342B" stroke-width="2" stroke-miterlimit="10" width="48.499" height="34.247"/>
<rect x="91.096" y="146.794" transform="matrix(-0.291 0.9567 -0.9567 -0.291 321.3878 89.6666)" fill="#F26D5E" stroke="#31342B" stroke-width="2" stroke-miterlimit="10" width="72.747" height="34.248"/>
<line fill="none" stroke="#31342B" stroke-width="2" stroke-miterlimit="10" x1="167.238" y1="92.031" x2="158.072" y2="89.243"/>
<line fill="none" stroke="#31342B" stroke-width="2" stroke-miterlimit="10" x1="152.945" y1="87.684" x2="134.471" y2="82.065"/>
<line fill="none" stroke="#31342B" stroke-width="2" stroke-miterlimit="10" x1="156.522" y1="88.772" x2="154.765" y2="88.237"/>
<line fill="none" stroke="#31342B" stroke-width="2" stroke-miterlimit="10" x1="123.021" y1="119.715" x2="133.583" y2="122.928"/>
<line fill="none" stroke="#31342B" stroke-width="2" stroke-miterlimit="10" x1="135.049" y1="123.373" x2="136.808" y2="123.908"/>
<line fill="none" stroke="#31342B" stroke-width="2" stroke-miterlimit="10" x1="138.418" y1="124.396" x2="155.789" y2="129.68"/>
<ellipse transform="matrix(0.2912 -0.9567 0.9567 0.2912 -91.42 265.9381)" fill="#FFFFFF" stroke="#31342B" stroke-miterlimit="10" cx="133.76" cy="194.665" rx="3.647" ry="1.633"/>
<ellipse transform="matrix(0.2909 -0.9568 0.9568 0.2909 -92.707 262.3271)" fill="#FFFFFF" stroke="#31342B" stroke-miterlimit="10" cx="130.611" cy="193.703" rx="3.648" ry="1.633"/>
<ellipse transform="matrix(0.2912 -0.9567 0.9567 0.2912 -94.0393 258.6198)" fill="#FFFFFF" stroke="#31342B" stroke-miterlimit="10" cx="127.502" cy="192.77" rx="3.648" ry="1.635"/>
<ellipse transform="matrix(0.2911 -0.9567 0.9567 0.2911 -95.3382 254.9858)" fill="#FFFFFF" stroke="#31342B" stroke-miterlimit="10" cx="124.38" cy="191.821" rx="3.647" ry="1.634"/>
<ellipse transform="matrix(0.2911 -0.9567 0.9567 0.2911 -96.6508 251.2838)" fill="#FFFFFF" stroke="#31342B" stroke-miterlimit="10" cx="121.237" cy="190.86" rx="3.647" ry="1.634"/>
<ellipse transform="matrix(0.2909 -0.9568 0.9568 0.2909 -97.9524 247.6831)" fill="#FFFFFF" stroke="#31342B" stroke-miterlimit="10" cx="118.116" cy="189.922" rx="3.647" ry="1.635"/>
<ellipse transform="matrix(0.2911 -0.9567 0.9567 0.2911 -99.2616 243.9634)" fill="#FFFFFF" stroke="#31342B" stroke-miterlimit="10" cx="114.992" cy="188.962" rx="3.647" ry="1.634"/>
<ellipse transform="matrix(0.2912 -0.9567 0.9567 0.2912 -100.5635 240.295)" fill="#FFFFFF" stroke="#31342B" stroke-miterlimit="10" cx="111.876" cy="188.011" rx="3.647" ry="1.633"/>
<ellipse transform="matrix(0.2913 -0.9566 0.9566 0.2913 -101.8681 236.5815)" fill="#FFFFFF" stroke="#31342B" stroke-miterlimit="10" cx="108.746" cy="187.046" rx="3.647" ry="1.634"/>
<ellipse transform="matrix(0.291 -0.9567 0.9567 0.291 -103.1744 232.9788)" fill="#FFFFFF" stroke="#31342B" stroke-miterlimit="10" cx="105.602" cy="186.101" rx="3.647" ry="1.633"/>
<path fill="#FFFFFF" stroke="#31342B" stroke-miterlimit="10" d="M175.239,58.263c-0.863-0.262-1.088-2.038-0.501-3.964
	c0.586-1.928,1.76-3.277,2.623-3.015c0.866,0.263,1.093,2.038,0.503,3.966C177.278,57.176,176.104,58.525,175.239,58.263z"/>
<ellipse transform="matrix(0.2909 -0.9568 0.9568 0.2909 71.3105 203.847)" fill="#FFFFFF" stroke="#31342B" stroke-miterlimit="10" cx="173.174" cy="53.816" rx="3.647" ry="1.634"/>
<ellipse transform="matrix(0.2909 -0.9568 0.9568 0.2909 69.9883 200.1773)" fill="#FFFFFF" stroke="#31342B" stroke-miterlimit="10" cx="170.037" cy="52.873" rx="3.647" ry="1.633"/>
<ellipse transform="matrix(0.291 -0.9567 0.9567 0.291 68.6951 196.5168)" fill="#FFFFFF" stroke="#31342B" stroke-miterlimit="10" cx="166.93" cy="51.912" rx="3.647" ry="1.633"/>
<ellipse transform="matrix(0.2909 -0.9568 0.9568 0.2909 67.3962 192.8449)" fill="#FFFFFF" stroke="#31342B" stroke-miterlimit="10" cx="163.795" cy="50.956" rx="3.647" ry="1.634"/>
<ellipse transform="matrix(0.2911 -0.9567 0.9567 0.2911 66.0427 189.1745)" fill="#FFFFFF" stroke="#31342B" stroke-miterlimit="10" cx="160.676" cy="50.022" rx="3.647" ry="1.633"/>
<ellipse transform="matrix(0.2909 -0.9568 0.9568 0.2909 64.7783 185.5149)" fill="#FFFFFF" stroke="#31342B" stroke-miterlimit="10" cx="157.541" cy="49.057" rx="3.647" ry="1.633"/>
<ellipse transform="matrix(0.2911 -0.9567 0.9567 0.2911 63.4264 181.8425)" fill="#FFFFFF" stroke="#31342B" stroke-miterlimit="10" cx="154.418" cy="48.122" rx="3.648" ry="1.634"/>
<ellipse transform="matrix(0.2909 -0.9567 0.9567 0.2909 62.1391 178.2036)" fill="#FFFFFF" stroke="#31342B" stroke-miterlimit="10" cx="151.294" cy="47.18" rx="3.647" ry="1.634"/>
<ellipse transform="matrix(0.2911 -0.9567 0.9567 0.2911 60.8274 174.5189)" fill="#FFFFFF" stroke="#31342B" stroke-miterlimit="10" cx="148.169" cy="46.217" rx="3.648" ry="1.633"/>
<polygon fill="#CC0000" stroke="#000000" stroke-width="3" stroke-miterlimit="10" points="138.587,60.685 86.203,203.025 
	46.152,187.969 99.361,46.251 "/>
<g>
	<polygon fill="none" stroke="#31342B" stroke-width="2" stroke-miterlimit="10" points="46.111,187.953 47.066,185.414 
		48.006,182.912 48.01,182.904 49.475,178.984 49.479,178.975 50.564,176.102 51.894,172.549 53.121,169.289 54.318,166.104 
		55.681,162.477 56.725,159.674 58.233,155.676 58.237,155.666 59.146,153.238 60.796,148.854 61.563,146.813 63.354,142.041 
		63.978,140.361 65.907,135.24 66.39,133.947 68.456,128.424 68.46,128.414 68.801,127.506 68.806,127.496 71.015,121.635 
		71.222,121.07 73.572,114.8 73.643,114.634 76.054,108.195 76.126,107.997 78.471,101.769 78.684,101.186 80.885,95.342 
		81.241,94.375 83.297,88.903 83.8,87.564 85.717,82.467 86.357,80.752 88.125,76.038 88.915,73.939 90.546,69.602 91.47,67.136 
		91.474,67.127 92.965,63.166 94.026,60.325 95.376,56.726 96.586,53.513 97.793,50.3 99.139,46.711 99.143,46.702 99.319,46.233 
		105.866,48.646 107.728,49.326 116.23,52.458 116.73,52.637 125.768,55.963 126.613,56.278 134.778,59.279 136.976,60.089 
		138.546,60.667 137.494,63.534 136.539,66.126 134.965,70.38 134.171,72.541 134.166,72.549 132.443,77.262 131.808,78.968 
		129.914,84.106 129.91,84.115 129.445,85.396 127.387,90.975 127.088,91.814 124.864,97.834 124.719,98.229 124.715,98.238 
		122.356,104.656 122.34,104.693 119.998,111.074 119.816,111.551 117.631,117.51 117.289,118.42 115.263,123.926 115.259,123.934 
		114.766,125.279 112.9,130.354 112.242,132.139 110.537,136.779 109.715,139.006 108.17,143.195 107.191,145.865 105.803,149.631 
		104.664,152.732 103.445,156.049 102.145,159.582 101.081,162.479 99.616,166.449 98.714,168.891 97.098,173.301 96.352,175.318 
		94.574,180.16 93.992,181.736 92.046,187.027 91.617,188.17 89.522,193.887 89.258,194.588 86.995,200.754 86.899,201.006 
		86.16,203.006 82.977,201.811 80.079,200.727 80.069,200.723 72.753,197.973 71.005,197.309 70.995,197.303 62.535,194.123 
		62.526,194.121 61.916,193.895 52.846,190.488 52.836,190.484 52.305,190.281 52.295,190.277 	"/>
	<polyline fill="none" stroke="#31342B" stroke-width="2" stroke-miterlimit="10" points="97.793,50.3 101.015,49.643 
		105.866,48.646 	"/>
	<polyline fill="none" stroke="#31342B" stroke-width="2" stroke-miterlimit="10" points="95.376,56.726 98.266,56.136 
		104.365,54.884 110.476,53.637 116.23,52.458 116.566,52.383 	"/>
	<polyline fill="none" stroke="#31342B" stroke-width="2" stroke-miterlimit="10" points="92.965,63.166 95.51,62.646 
		101.619,61.399 107.72,60.149 113.832,58.892 119.929,57.651 126.043,56.394 126.613,56.278 	"/>
	<polyline fill="none" stroke="#31342B" stroke-width="2" stroke-miterlimit="10" points="90.546,69.602 92.758,69.148 
		98.857,67.897 104.971,66.64 111.066,65.399 117.18,64.143 123.28,62.892 129.391,61.646 135.49,60.394 136.976,60.089 	"/>
	<polyline fill="none" stroke="#31342B" stroke-width="2" stroke-miterlimit="10" points="88.125,76.038 90.014,75.653 
		96.114,74.402 102.215,73.151 108.324,71.905 114.424,70.654 120.533,69.406 126.634,68.156 132.747,66.9 136.539,66.126 	"/>
	<polyline fill="none" stroke="#31342B" stroke-width="2" stroke-miterlimit="10" points="134.171,72.541 134.166,72.549 
		129.981,73.406 123.883,74.658 123.872,74.653 117.771,75.905 111.672,77.156 105.563,78.402 99.462,79.653 93.354,80.899 
		87.253,82.151 85.717,82.467 	"/>
	<polyline fill="none" stroke="#31342B" stroke-width="2" stroke-miterlimit="10" points="83.297,88.903 84.496,88.662 
		90.596,87.411 96.71,86.154 102.811,84.903 108.92,83.656 115.02,82.406 121.12,81.155 127.229,79.908 131.808,78.968 	"/>
	<polyline fill="none" stroke="#31342B" stroke-width="2" stroke-miterlimit="10" points="129.445,85.396 124.477,86.409 
		118.377,87.66 112.268,88.906 106.166,90.159 100.066,91.409 100.058,91.405 93.954,92.665 87.854,93.916 81.744,95.162 
		80.885,95.342 	"/>
	<polyline fill="none" stroke="#31342B" stroke-width="2" stroke-miterlimit="10" points="127.088,91.814 121.726,92.91 
		115.615,94.159 109.516,95.409 103.406,96.656 97.305,97.906 91.205,99.157 85.092,100.414 78.991,101.665 78.471,101.769 	"/>
	<polyline fill="none" stroke="#31342B" stroke-width="2" stroke-miterlimit="10" points="124.719,98.229 124.715,98.238 
		118.973,99.413 112.863,100.659 106.763,101.91 100.65,103.166 94.55,104.417 88.449,105.668 82.34,106.915 76.23,108.162 
		76.054,108.195 	"/>
	<polyline fill="none" stroke="#31342B" stroke-width="2" stroke-miterlimit="10" points="122.356,104.656 122.32,104.663 
		116.22,105.913 110.107,107.169 104.007,108.42 97.906,109.672 91.797,110.918 85.697,112.169 79.588,113.416 73.643,114.634 
		73.487,114.667 	"/>
	<polyline fill="none" stroke="#31342B" stroke-width="2" stroke-miterlimit="10" points="119.998,111.074 119.567,111.164 
		113.464,112.423 107.354,113.671 101.255,114.922 95.145,116.168 89.045,117.42 82.935,118.666 76.834,119.918 71.222,121.07 	"/>
	<polyline fill="none" stroke="#31342B" stroke-width="2" stroke-miterlimit="10" points="117.631,117.51 116.812,117.674 
		110.712,118.926 104.602,120.172 98.502,121.422 92.401,122.674 86.292,123.922 80.192,125.172 74.08,126.428 68.806,127.496 
		68.801,127.506 	"/>
	<polyline fill="none" stroke="#31342B" stroke-width="2" stroke-miterlimit="10" points="66.39,133.947 71.326,132.93 
		77.427,131.678 83.54,130.422 89.637,129.182 95.75,127.926 101.85,126.676 107.959,125.428 114.06,124.176 115.259,123.934 
		115.263,123.926 	"/>
	<polyline fill="none" stroke="#31342B" stroke-width="2" stroke-miterlimit="10" points="63.978,140.361 68.578,139.422 
		74.679,138.172 80.775,136.93 86.889,135.672 92.988,134.422 92.997,134.426 99.098,133.176 105.207,131.93 111.307,130.678 
		112.9,130.354 	"/>
	<polyline fill="none" stroke="#31342B" stroke-width="2" stroke-miterlimit="10" points="61.563,146.813 65.831,145.936 
		71.932,144.686 78.031,143.436 84.131,142.184 90.241,140.938 96.341,139.688 102.455,138.43 108.552,137.188 110.537,136.779 	"/>
	<polyline fill="none" stroke="#31342B" stroke-width="2" stroke-miterlimit="10" points="59.146,153.238 63.08,152.438 
		69.179,151.188 75.279,149.938 81.389,148.689 87.48,147.436 93.589,146.188 99.689,144.936 105.803,143.68 108.17,143.195 	"/>
	<polyline fill="none" stroke="#31342B" stroke-width="2" stroke-miterlimit="10" points="56.725,159.674 60.318,158.936 
		66.427,157.689 72.526,156.438 78.636,155.191 84.738,153.941 90.838,152.689 96.946,151.441 103.047,150.191 105.803,149.631 	"/>
	<polyline fill="none" stroke="#31342B" stroke-width="2" stroke-miterlimit="10" points="103.445,156.049 100.294,156.693 
		94.186,157.939 88.085,159.191 81.984,160.441 75.885,161.691 69.775,162.939 63.676,164.189 57.566,165.436 54.318,166.104 	"/>
	<polyline fill="none" stroke="#31342B" stroke-width="2" stroke-miterlimit="10" points="51.894,172.549 54.818,171.951 
		60.918,170.701 67.019,169.451 73.133,168.193 79.232,166.943 85.343,165.695 91.441,164.445 97.538,163.203 101.081,162.479 	"/>
	<polyline fill="none" stroke="#31342B" stroke-width="2" stroke-miterlimit="10" points="49.475,178.984 49.479,178.975 
		52.066,178.453 58.166,177.201 64.267,175.951 70.377,174.705 76.48,173.445 82.59,172.197 88.689,170.945 94.79,169.695 
		98.714,168.891 	"/>
	<polyline fill="none" stroke="#31342B" stroke-width="2" stroke-miterlimit="10" points="47.066,185.414 49.314,184.955 
		55.414,183.703 61.523,182.457 67.624,181.205 73.724,179.955 79.834,178.709 85.934,177.457 92.037,176.197 92.048,176.201 
		96.352,175.318 	"/>
	<polyline fill="none" stroke="#31342B" stroke-width="2" stroke-miterlimit="10" points="93.992,181.736 89.285,182.699 
		83.186,183.949 77.072,185.205 70.973,186.457 64.872,187.707 58.762,188.955 52.661,190.205 52.305,190.281 52.295,190.277 	"/>
	<polyline fill="none" stroke="#31342B" stroke-width="2" stroke-miterlimit="10" points="91.617,188.17 86.538,189.215 
		80.43,190.461 74.329,191.711 68.219,192.957 62.535,194.123 62.526,194.121 62.119,194.209 	"/>
	<polyline fill="none" stroke="#31342B" stroke-width="2" stroke-miterlimit="10" points="89.258,194.588 83.777,195.711 
		77.676,196.961 72.753,197.973 	"/>
	<polyline fill="none" stroke="#31342B" stroke-width="2" stroke-miterlimit="10" points="87.125,200.961 86.899,201.006 
		82.977,201.811 	"/>
	<polyline fill="none" stroke="#31342B" stroke-width="2" stroke-miterlimit="10" points="52.846,190.488 52.836,190.484 
		52.661,190.205 49.314,184.955 48.006,182.912 48.01,182.904 	"/>
	<polyline fill="none" stroke="#31342B" stroke-width="2" stroke-miterlimit="10" points="62.119,194.209 61.916,193.895 
		58.762,188.955 55.414,183.703 52.066,178.453 50.564,176.102 	"/>
	<polyline fill="none" stroke="#31342B" stroke-width="2" stroke-miterlimit="10" points="53.121,169.289 54.818,171.951 
		58.166,177.201 61.523,182.457 64.872,187.707 68.219,192.957 70.995,197.303 71.005,197.309 	"/>
	<polyline fill="none" stroke="#31342B" stroke-width="2" stroke-miterlimit="10" points="80.079,200.727 80.069,200.723 
		77.676,196.961 74.329,191.711 70.973,186.457 67.624,181.205 64.267,175.951 60.918,170.701 57.566,165.436 55.681,162.477 	"/>
	<polyline fill="none" stroke="#31342B" stroke-width="2" stroke-miterlimit="10" points="87.125,200.961 86.995,200.754 
		83.777,195.711 80.43,190.461 77.072,185.205 73.724,179.955 70.377,174.705 67.019,169.451 63.676,164.189 60.318,158.936 
		58.233,155.676 58.237,155.666 	"/>
	<polyline fill="none" stroke="#31342B" stroke-width="2" stroke-miterlimit="10" points="89.522,193.887 86.538,189.215 
		83.186,183.949 79.834,178.709 76.48,173.445 73.133,168.193 69.775,162.939 66.427,157.689 63.08,152.438 60.796,148.854 	"/>
	<polyline fill="none" stroke="#31342B" stroke-width="2" stroke-miterlimit="10" points="92.046,187.027 89.285,182.699 
		85.934,177.457 82.59,172.197 79.232,166.943 75.885,161.691 72.526,156.438 69.179,151.188 65.831,145.936 63.354,142.041 	"/>
	<polyline fill="none" stroke="#31342B" stroke-width="2" stroke-miterlimit="10" points="65.907,135.24 68.578,139.422 
		71.932,144.686 75.279,149.938 78.636,155.191 81.984,160.441 85.343,165.695 88.689,170.945 92.037,176.197 92.048,176.201 
		94.574,180.16 	"/>
	<polyline fill="none" stroke="#31342B" stroke-width="2" stroke-miterlimit="10" points="97.098,173.301 94.79,169.695 
		91.441,164.445 88.085,159.191 84.738,153.941 81.389,148.689 78.031,143.436 74.679,138.172 71.326,132.93 68.456,128.424 
		68.46,128.414 	"/>
	<polyline fill="none" stroke="#31342B" stroke-width="2" stroke-miterlimit="10" points="99.616,166.449 97.538,163.203 
		94.186,157.939 90.838,152.689 87.48,147.436 84.131,142.184 80.775,136.93 77.427,131.678 74.08,126.428 71.015,121.635 	"/>
	<polyline fill="none" stroke="#31342B" stroke-width="2" stroke-miterlimit="10" points="73.487,114.667 73.572,114.8 
		76.834,119.918 80.192,125.172 83.54,130.422 86.889,135.672 90.241,140.938 93.589,146.188 96.946,151.441 100.294,156.693 
		102.145,159.582 	"/>
	<polyline fill="none" stroke="#31342B" stroke-width="2" stroke-miterlimit="10" points="104.664,152.732 103.047,150.191 
		99.689,144.936 96.341,139.688 92.997,134.426 92.988,134.422 89.637,129.182 86.292,123.922 82.935,118.666 79.588,113.416 
		76.23,108.162 76.126,107.997 	"/>
	<polyline fill="none" stroke="#31342B" stroke-width="2" stroke-miterlimit="10" points="107.191,145.865 105.803,143.68 
		102.455,138.43 99.098,133.176 95.75,127.926 92.401,122.674 89.045,117.42 85.697,112.169 82.34,106.915 78.991,101.665 
		78.684,101.186 	"/>
	<polyline fill="none" stroke="#31342B" stroke-width="2" stroke-miterlimit="10" points="81.241,94.375 81.744,95.162 
		85.092,100.414 88.449,105.668 91.797,110.918 95.145,116.168 98.502,121.422 101.85,126.676 105.207,131.93 108.552,137.188 
		109.715,139.006 	"/>
	<polyline fill="none" stroke="#31342B" stroke-width="2" stroke-miterlimit="10" points="112.242,132.139 111.307,130.678 
		107.959,125.428 104.602,120.172 101.255,114.922 97.906,109.672 94.55,104.417 91.205,99.157 87.854,93.916 84.496,88.662 
		83.8,87.564 	"/>
	<polyline fill="none" stroke="#31342B" stroke-width="2" stroke-miterlimit="10" points="86.357,80.752 87.253,82.151 
		90.596,87.411 93.954,92.665 97.305,97.906 100.65,103.166 104.007,108.42 107.354,113.671 110.712,118.926 114.06,124.176 
		114.766,125.279 	"/>
	<polyline fill="none" stroke="#31342B" stroke-width="2" stroke-miterlimit="10" points="88.915,73.939 90.014,75.653 
		93.354,80.899 96.71,86.154 100.058,91.405 100.066,91.409 103.406,96.656 106.763,101.91 110.107,107.169 113.464,112.423 
		116.812,117.674 117.289,118.42 	"/>
	<polyline fill="none" stroke="#31342B" stroke-width="2" stroke-miterlimit="10" points="119.816,111.551 119.567,111.164 
		116.22,105.913 112.863,100.659 109.516,95.409 106.166,90.159 102.811,84.903 99.462,79.653 96.114,74.402 92.758,69.148 
		91.47,67.136 91.474,67.127 	"/>
	<polyline fill="none" stroke="#31342B" stroke-width="2" stroke-miterlimit="10" points="94.026,60.325 95.51,62.646 
		98.857,67.897 102.215,73.151 105.563,78.402 108.92,83.656 112.268,88.906 115.615,94.159 118.973,99.413 122.32,104.663 
		122.34,104.693 	"/>
	<polyline fill="none" stroke="#31342B" stroke-width="2" stroke-miterlimit="10" points="124.864,97.834 121.726,92.91 
		118.377,87.66 115.02,82.406 111.672,77.156 108.324,71.905 104.971,66.64 101.619,61.399 98.266,56.136 96.586,53.513 	"/>
	<polyline fill="none" stroke="#31342B" stroke-width="2" stroke-miterlimit="10" points="99.143,46.702 99.139,46.711 
		101.015,49.643 104.365,54.884 107.72,60.149 111.066,65.399 114.424,70.654 117.771,75.905 121.12,81.155 124.477,86.409 
		127.387,90.975 	"/>
	<polyline fill="none" stroke="#31342B" stroke-width="2" stroke-miterlimit="10" points="107.728,49.326 110.476,53.637 
		113.832,58.892 117.18,64.143 120.533,69.406 123.872,74.653 123.883,74.658 127.229,79.908 129.914,84.106 129.91,84.115 	"/>
	<polyline fill="none" stroke="#31342B" stroke-width="2" stroke-miterlimit="10" points="132.443,77.262 129.981,73.406 
		126.634,68.156 123.28,62.892 119.929,57.651 116.73,52.637 116.566,52.383 	"/>
	<polyline fill="none" stroke="#31342B" stroke-width="2" stroke-miterlimit="10" points="134.965,70.38 132.747,66.9 
		129.391,61.646 126.043,56.394 125.768,55.963 	"/>
	<polyline fill="none" stroke="#31342B" stroke-width="2" stroke-miterlimit="10" points="137.494,63.534 135.49,60.394 
		134.778,59.279 	"/>
</g>
<rect x="79.467" y="131.294" transform="matrix(-0.351 0.9364 -0.9364 -0.351 255.2945 132.8994)" fill="#F68828" width="4.251" height="47.25"/>
<g>
	<path fill="#31342B" d="M61.085,146.572l41.433,15.533l-0.438,1.17l-41.434-15.531L61.085,146.572 M59.329,142.711l-2.546,6.789
		l47.052,17.639l2.546-6.789L59.329,142.711L59.329,142.711z"/>
</g>
<rect x="69.5" y="157.052" transform="matrix(-0.353 0.9356 -0.9356 -0.353 265.9507 177.4406)" fill="#F68828" width="4.249" height="47.244"/>
<g>
	<path fill="#31342B" d="M51.146,172.279l41.4,15.621l-0.441,1.168l-41.4-15.619L51.146,172.279 M49.397,168.414l-2.559,6.783
		l47.014,17.738l2.56-6.783L49.397,168.414L49.397,168.414z"/>
</g>
<rect x="89.174" y="78.241" transform="matrix(-0.3414 0.9399 -0.9399 -0.3414 228.5086 31.9343)" fill="#CFE622" width="27.784" height="35.568"/>
<g>
	<path fill="#31342B" d="M91.99,78.818l30.613,11.119l-8.462,23.296l-30.613-11.119L91.99,78.818 M90.194,74.975l-10.51,28.935
		l36.252,13.167l10.511-28.935L90.194,74.975L90.194,74.975z"/>
</g>
<g>
	
		<rect x="8.242" y="194.65" transform="matrix(-0.5029 0.8644 -0.8644 -0.5029 191.6828 286.0629)" fill="#F04C41" stroke="#31342B" stroke-miterlimit="10" width="10.672" height="7.007"/>
	
		<rect x="14.943" y="187.784" transform="matrix(-0.5028 0.8644 -0.8644 -0.5028 191.7664 272.2678)" fill="#353D4C" stroke="#31342B" stroke-miterlimit="10" width="5.267" height="7.009"/>
	
		<rect x="13.326" y="175.788" transform="matrix(-0.5029 0.8643 -0.8643 -0.5029 191.8712 248.2409)" fill="#B23025" stroke="#31342B" stroke-miterlimit="10" width="22.453" height="7.011"/>
	
		<rect x="20.42" y="149.084" transform="matrix(-0.5029 0.8643 -0.8643 -0.5029 192.1439 194.6762)" fill="#F04C41" stroke="#31342B" stroke-miterlimit="10" width="39.346" height="7.01"/>
	
		<rect x="48.089" y="128.769" transform="matrix(-0.5029 0.8643 -0.8643 -0.5029 192.35 153.9233)" fill="#F68828" stroke="#31342B" stroke-miterlimit="10" width="7.649" height="7.009"/>
</g>
<g>
	
		<rect x="21.484" y="195.325" transform="matrix(-0.4529 0.8916 -0.8916 -0.4529 216.2345 264.9698)" fill="#F04C41" stroke="#31342B" stroke-miterlimit="10" width="10.673" height="7.008"/>
	
		<rect x="27.815" y="188.225" transform="matrix(-0.4531 0.8915 -0.8915 -0.4531 215.1647 251.4499)" fill="#353D4C" stroke="#31342B" stroke-miterlimit="10" width="5.267" height="7.008"/>
	
		<rect x="25.484" y="175.853" transform="matrix(-0.4529 0.8916 -0.8916 -0.4529 213.249 227.8531)" fill="#B23025" stroke="#31342B" stroke-miterlimit="10" width="22.456" height="7.01"/>
	
		<rect x="31.036" y="148.304" transform="matrix(-0.4529 0.8915 -0.8915 -0.4529 209.019 175.358)" fill="#F04C41" stroke="#31342B" stroke-miterlimit="10" width="39.344" height="7.01"/>
	
		<rect x="57.976" y="127.076" transform="matrix(-0.4529 0.8916 -0.8916 -0.4529 205.7678 134.8964)" fill="#F68828" stroke="#31342B" stroke-miterlimit="10" width="7.04" height="7.01"/>
</g>
<g>
	
		<rect x="152.871" y="194.586" transform="matrix(-0.277 0.9609 -0.9609 -0.277 392.3709 100.9521)" fill="#F04C41" stroke="#31342B" stroke-miterlimit="10" width="10.671" height="7.008"/>
	
		<rect x="157.783" y="186.937" transform="matrix(-0.2769 0.9609 -0.9609 -0.2769 387.8344 89.0344)" fill="#353D4C" stroke="#31342B" stroke-miterlimit="10" width="5.269" height="7.009"/>
	
		<rect x="153.02" y="173.598" transform="matrix(-0.277 0.9609 -0.9609 -0.277 379.9157 68.3368)" fill="#B23025" stroke="#31342B" stroke-miterlimit="10" width="22.455" height="7.01"/>
	<polygon fill="#F04C41" stroke="#31342B" stroke-miterlimit="10" points="163.993,165.352 174.893,127.541 181.639,129.482 
		170.729,167.293 	"/>
	
		<rect x="175.504" y="121.333" transform="matrix(-0.2771 0.9608 -0.9608 -0.2771 348.9702 -12.877)" fill="#F68828" stroke="#31342B" stroke-miterlimit="10" width="7.65" height="7.017"/>
</g>
<g>
	
		<rect x="164.858" y="124.856" transform="matrix(0.3623 -0.9321 0.9321 0.3623 -11.1081 240.485)" fill="#F04C41" stroke="#31342B" stroke-miterlimit="10" width="10.672" height="7.008"/>
	
		<rect x="164.67" y="132.275" transform="matrix(0.3622 -0.9321 0.9321 0.3622 -19.8479 242.554)" fill="#353D4C" stroke="#31342B" stroke-miterlimit="10" width="5.268" height="7.009"/>
	
		<rect x="151.055" y="145.191" transform="matrix(0.3622 -0.9321 0.9321 0.3622 -35.0975 246.0994)" fill="#B23025" stroke="#31342B" stroke-miterlimit="10" width="22.453" height="7.01"/>
	
		<rect x="131.416" y="173.997" transform="matrix(0.3622 -0.9321 0.9321 0.3622 -69.0849 254.0423)" fill="#F04C41" stroke="#31342B" stroke-miterlimit="10" width="39.348" height="7.01"/>
	
		<rect x="138.754" y="195.903" transform="matrix(0.3622 -0.9321 0.9321 0.3622 -94.9315 260.0787)" fill="#F68828" stroke="#31342B" stroke-miterlimit="10" width="7.65" height="7.008"/>
</g>
<g>
	
		<rect x="181.983" y="120.657" transform="matrix(0.1524 -0.9883 0.9883 0.1524 36.0631 290.3718)" fill="#F04C41" stroke="#31342B" stroke-miterlimit="10" width="10.671" height="7.009"/>
	<polygon fill="#353D4C" stroke="#31342B" stroke-miterlimit="10" points="183.045,128.896 182.247,134.104 189.172,135.17 
		189.971,129.965 	"/>
	<polygon fill="#B23025" stroke="#31342B" stroke-miterlimit="10" points="182.247,134.104 178.82,156.297 185.754,157.363 
		189.172,135.17 	"/>
	
		<rect x="159.628" y="172.776" transform="matrix(0.1523 -0.9883 0.9883 0.1523 -22.2358 326.6456)" fill="#F04C41" stroke="#31342B" stroke-miterlimit="10" width="39.345" height="7.017"/>
	<polygon fill="#F68828" stroke="#31342B" stroke-miterlimit="10" points="172.736,195.789 171.664,202.748 178.596,203.813 
		179.672,196.855 	"/>
</g>
<g>
	<g>
		<path fill="#F7941E" d="M198.765,76.951c-0.702-0.004-1.417-0.157-2.122-0.455c-6.021-2.532-13.393-16.65-13.41-29.52v-0.078
			l-0.009-0.079c-1.312-12.239,0.87-23.864,5.427-28.927c1.934-2.147,3.889-2.598,5.188-2.598c3.756,0.018,5.99,2.744,7.963,5.148
			c2.146,2.612,3.588,4.213,6.021,4.227c5.625,0,11.471-7.934,11.527-8.014l0.675-0.938l104.129-8.946l0.429,4.981L222.7,20.506
			l-0.4,0.481c-2.174,2.61-7.934,8.68-14.452,8.68c-4.95-0.024-7.692-3.358-9.896-6.038c-1.553-1.891-2.568-3.049-3.687-3.291
			l-0.54-0.117l-0.484,0.262c-3.037,1.631-6.504,12.573-5.021,26.005l0.02,0.38c-0.058,10.942,5.868,21.49,9.202,24.294l1.04,0.875
			l1.286-1.263c3.401-3.442,6.601-6.678,12.28-6.678c5.672,0.029,9.104,0.292,14.588,5.373l0.484,0.449l101.705-8.395l0.407,4.983
			l-104.015,8.586l-0.817-0.829c-5.082-5.134-7.347-5.145-12.308-5.169c-3.645,0-5.68,2.063-8.764,5.186
			c-0.468,0.471-0.89,0.896-1.328,1.333c-0.881,0.873-1.99,1.333-3.213,1.333h-0.021L198.765,76.951L198.765,76.951z"/>
		<path fill="#414042" d="M322.786,8.394l0.172,1.993l-99.765,8.572l-1.247,0.107l-0.802,0.962c-2.038,2.448-7.415,8.14-13.343,8.14
			c-4.196-0.021-6.588-2.927-8.704-5.502c-1.748-2.13-2.925-3.448-4.519-3.792l-1.08-0.233l-0.976,0.523
			c-3.937,2.115-7.282,13.885-5.812,27.412l0.019,0.29c-0.024,12.021,6.431,22.663,9.739,25.447l2.08,1.751l1.945-1.899
			c0.073-0.073,0.147-0.146,0.221-0.22l0.127-0.127c3.298-3.335,6.146-6.216,11.197-6.216h0.067
			c5.376,0.027,8.418,0.261,13.502,4.973l0.97,0.898l1.316-0.109l99.55-8.217l0.164,1.993L225.79,73.545l-0.328-0.333
			c-5.295-5.349-7.924-5.586-13.362-5.613h-0.043h-0.009c-4.229,0-6.562,2.362-9.782,5.627l-0.056,0.054
			c-0.41,0.414-0.83,0.837-1.269,1.271c-0.603,0.596-1.325,0.898-2.168,0.898c-0.506-0.003-1.026-0.116-1.554-0.338
			c-4.899-2.06-12.473-15.071-12.489-28.138v-0.158l-0.019-0.157c-1.248-11.656,0.828-23.073,5.052-27.763
			c1.256-1.395,2.625-2.102,4.096-2.102c2.804,0.014,4.577,1.915,6.781,4.602c2.01,2.445,3.907,4.754,7.207,4.772
			c6.351,0,12.454-8.278,12.723-8.645l0.267-0.37L322.786,8.394 M325.519,5.147l-106.312,9.134l-1.07,1.489
			c-1.396,1.916-6.287,7.397-10.287,7.397c-0.008,0-0.014,0-0.02,0c-1.684-0.009-2.775-1.128-4.871-3.678
			c-2.074-2.529-4.662-5.675-9.082-5.697c-0.016,0-0.026,0-0.039,0c-1.613,0-4.004,0.542-6.303,3.095
			c-4.84,5.375-7.158,17.443-5.805,30.09c0.021,13.813,7.822,28.165,14.328,30.899c0.898,0.38,1.813,0.567,2.695,0.573
			c0.012,0,0.021,0,0.031,0c1.592,0,3.09-0.602,4.268-1.768c0.465-0.459,0.906-0.907,1.342-1.345c3.24-3.283,4.805-4.739,7.65-4.739
			c0.015,0,0.024,0,0.037,0c4.807,0.023,6.604,0.033,11.246,4.724l1.313,1.327l106.204-8.768l-0.653-7.973l-102.542,8.464
			c-5.861-5.433-9.813-5.744-15.523-5.773c-0.027,0-0.058,0-0.084,0c-6.313,0-9.881,3.617-13.338,7.114
			c-0.102,0.1-0.199,0.203-0.305,0.303c-2.852-2.397-8.727-12.343-8.67-23.232l-0.023-0.459c-1.535-13.908,2.26-23.456,4.236-24.519
			c0.688,0.148,1.869,1.59,2.832,2.763c2.279,2.771,5.396,6.571,11.012,6.599c0.02,0,0.039,0,0.057,0c7.068,0,13.1-6.21,15.605-9.22
			l102.754-8.829L325.519,5.147L325.519,5.147z"/>
	</g>
	<line fill="none" stroke="#414042" stroke-width="2" stroke-miterlimit="10" x1="319.364" y1="11.696" x2="324.021" y2="62.354"/>
	<path fill="#E6E7E8" d="M322.709,60.605l-95.229,7.698c-5.86-5.432-9.812-5.745-15.526-5.771
		c-6.355-0.031-9.949,3.601-13.418,7.114c-0.104,0.101-0.203,0.201-0.303,0.303c-2.854-2.398-8.727-12.344-8.674-23.231l-0.025-0.46
		c-1.537-13.907,2.26-23.457,4.24-24.52c0.684,0.148,1.869,1.59,2.83,2.763c2.281,2.772,5.4,6.572,11.012,6.599
		c7.092,0.034,13.148-6.2,15.664-9.221l95.441-8.063"/>
	<line fill="none" stroke="#414042" stroke-miterlimit="10" x1="320.084" y1="19.73" x2="305.258" y2="21.125"/>
	<line fill="none" stroke="#414042" stroke-miterlimit="10" x1="322.284" y1="48.291" x2="305.12" y2="49.791"/>
	<line fill="none" stroke="#414042" stroke-miterlimit="10" x1="323.133" y1="53.711" x2="296.42" y2="56.082"/>
	<line fill="none" stroke="#414042" stroke-miterlimit="10" x1="187.85" y1="53.549" x2="200.999" y2="51.855"/>
	<line fill="none" stroke="#414042" stroke-miterlimit="10" x1="189.997" y1="57.259" x2="216.586" y2="53.69"/>
	<path fill="#414042" d="M291.028,36.679l-49.593,5.448C241.436,42.126,264.469,31.708,291.028,36.679z"/>
	<path fill="#414042" d="M271.198,35.938c1.395,0.005,2.232,0.074,2.232,0.074c1.099,0.089,2.055,1.059,2.128,2.158l0.961,14.352
		c0.048,0.739-0.241,1.152-0.71,1.148c-0.229,0-0.497-0.099-0.793-0.307l-5.948-4.204c-0.354-0.255-0.771-0.377-1.192-0.377
		c-0.633-0.005-1.267,0.271-1.681,0.791l-4.821,6.107c-0.287,0.367-0.567,0.543-0.812,0.543c-0.326-0.003-0.567-0.333-0.638-0.962
		l-1.832-17.495C263.163,36.164,268.344,35.922,271.198,35.938L271.198,35.938z"/>
	<path fill="#F04C41" d="M271.187,37.938c-2.298-0.011-6.567,0.153-10.929,1.286l1.355,12.928l3.014-3.817
		c0.771-0.979,1.992-1.56,3.26-1.555c0.846,0.005,1.654,0.262,2.338,0.744l4.15,2.935l-0.813-12.156
		c-0.007-0.107-0.187-0.288-0.291-0.297C273.264,38.004,272.474,37.945,271.187,37.938"/>
</g>
<rect x="0" y="205.986" fill="#F3B592" stroke="#231F20" stroke-width="3" stroke-miterlimit="10" width="352.954" height="9.564"/>
</svg>
