<?xml version="1.0" encoding="utf-8"?>
<!-- Generator: Adobe Illustrator 16.0.0, SVG Export Plug-In . SVG Version: 6.00 Build 0)  -->
<!DOCTYPE svg PUBLIC "-//W3C//DTD SVG 1.1//EN" "http://www.w3.org/Graphics/SVG/1.1/DTD/svg11.dtd">
<svg version="1.1" id="Layer_1" xmlns="http://www.w3.org/2000/svg" xmlns:xlink="http://www.w3.org/1999/xlink" x="0px" y="0px"
	 width="352.954px" height="226px" viewBox="0 0 352.954 226" enable-background="new 0 0 352.954 226" xml:space="preserve">
<path fill="#E6E7E8" d="M197.945,120.045l66.515-4.514c0,0,8.08-23.071-3.096-38.516l-64.892,6.138L197.945,120.045z"/>
<path fill="#B23025" d="M191.638,120.895l72.474-4.469l0.223-0.619c0.336-0.936,8.108-23.115-3.269-38.403l-0.336-0.45
	l-71.683,6.627l0.086-2.656l75.623-7.562c2.074,2.094,14.164,16.006,3.754,46.169l-76.598,4.32L191.638,120.895z"/>
<g>
	<path fill="#181A15" d="M264.375,74.405c1.143,1.231,3.762,4.486,5.531,10.039c2.094,6.578,3.383,17.783-2.125,34.126
		l-74.964,4.229l-0.09-0.97l70.787-4.364l1.313-0.082l0.444-1.238c0.345-0.957,8.286-23.624-3.407-39.337l-0.67-0.901l-1.119,0.103
		l-69.994,6.471l0.021-0.648L264.375,74.405 M265.114,72.321l-76.951,7.695l-0.15,4.664L260.263,78
		c11.188,15.034,3.13,37.469,3.13,37.469l-72.846,4.492l0.459,4.943l78.229-4.412C281.342,86.182,265.114,72.321,265.114,72.321
		L265.114,72.321z"/>
</g>
<line fill="none" stroke="#000000" stroke-width="2" stroke-miterlimit="10" x1="196.473" y1="83.153" x2="197.945" y2="120.045"/>
<path fill="#E04034" d="M270.5,119.377c9.328-26.495,0.242-41.505-3.485-46.195l62.881-4.003c1.013,0.771,5.899,5.378,6.757,22.866
	c0.866,17.69-3.958,22.189-4.854,22.863L270.5,119.377z"/>
<g>
	<path fill="#181A15" d="M329.558,70.203c1.246,1.148,5.321,6.079,6.096,21.891c0.789,16.102-3.177,20.863-4.243,21.839
		l-59.475,4.336c7.88-23.709,1.102-38.202-3.034-44.206L329.558,70.203 M330.165,68.16l-65.25,4.154c0,0,16.258,15.531,4.119,48.172
		l63.098-4.6c0,0,6.525-3.337,5.521-23.891C336.646,71.453,330.165,68.16,330.165,68.16L330.165,68.16z"/>
</g>
<path fill="#006838" d="M280.834,118.602c7.765-23.394-0.246-41.071-2.996-46.107l4.772-0.304
	c11.242,19.863,4.984,42.095,3.729,46.03L280.834,118.602z"/>
<path fill="#181A15" d="M282.045,73.227c10.119,18.454,5.074,38.901,3.543,44.042l-3.351,0.232
	c6.659-21.508,0.458-37.747-2.769-44.111L282.045,73.227 M283.168,71.152l-7.014,0.447c0,0,13.323,19.815,3.242,48.104l7.682-0.532
	C287.079,119.17,296.325,93.713,283.168,71.152L283.168,71.152z"/>
<path fill="#006838" d="M320.661,115.715c7.752-23.35-0.229-40.804-2.996-45.809l4.764-0.303
	c11.224,19.828,4.994,41.816,3.742,45.731L320.661,115.715z"/>
<path fill="#181A15" d="M321.862,70.641c10.112,18.433,5.088,38.638,3.557,43.742l-3.354,0.232
	c6.644-21.444,0.479-37.491-2.759-43.812L321.862,70.641 M322.985,68.565l-7.014,0.446c0,0,13.332,19.515,3.252,47.805l7.682-0.531
	C326.905,116.285,336.142,91.127,322.985,68.565L322.985,68.565z"/>
<ellipse transform="matrix(-0.0532 -0.9986 0.9986 -0.0532 228.0761 403.972)" fill="#242D3C" stroke="#181A15" stroke-width="2" stroke-miterlimit="10" cx="305.549" cy="93.862" rx="15.831" ry="7.239"/>
<line fill="none" stroke="#242D3C" stroke-width="2" stroke-miterlimit="10" x1="197.434" y1="107.155" x2="208.879" y2="106.279"/>
<line fill="none" stroke="#242D3C" stroke-width="2" stroke-miterlimit="10" x1="221.153" y1="104.988" x2="241.729" y2="103.614"/>
<line fill="none" stroke="#242D3C" stroke-width="2" stroke-miterlimit="10" x1="198.193" y1="112.344" x2="217.984" y2="110.826"/>
<line fill="none" stroke="#242D3C" stroke-width="2" stroke-miterlimit="10" x1="266.075" y1="90.769" x2="254.231" y2="91.419"/>
<rect x="187.566" y="169.287" fill="#009466" stroke="#494D40" stroke-width="2" stroke-miterlimit="10" width="41.998" height="34.25"/>
<rect x="229.564" y="169.287" fill="#F0ECCA" stroke="#494D40" stroke-width="2" stroke-miterlimit="10" width="48.5" height="34.25"/>
<rect x="278.064" y="169.287" fill="#009466" stroke="#494D40" stroke-width="2" stroke-miterlimit="10" width="72.75" height="34.25"/>
<line fill="none" stroke="#494D40" stroke-width="2" stroke-miterlimit="10" x1="234.083" y1="169.287" x2="234.083" y2="178.869"/>
<line fill="none" stroke="#494D40" stroke-width="2" stroke-miterlimit="10" x1="234.083" y1="184.227" x2="234.083" y2="203.537"/>
<line fill="none" stroke="#494D40" stroke-width="2" stroke-miterlimit="10" x1="234.083" y1="180.488" x2="234.083" y2="182.324"/>
<line fill="none" stroke="#494D40" stroke-width="2" stroke-miterlimit="10" x1="273.435" y1="203.537" x2="273.435" y2="192.496"/>
<line fill="none" stroke="#494D40" stroke-width="2" stroke-miterlimit="10" x1="273.435" y1="190.965" x2="273.435" y2="189.127"/>
<line fill="none" stroke="#494D40" stroke-width="2" stroke-miterlimit="10" x1="273.435" y1="187.443" x2="273.435" y2="169.287"/>
<ellipse fill="#FFFFFF" stroke="#494D40" stroke-miterlimit="10" cx="342.023" cy="171.457" rx="3.647" ry="1.635"/>
<ellipse fill="#FFFFFF" stroke="#494D40" stroke-miterlimit="10" cx="342.023" cy="174.725" rx="3.647" ry="1.635"/>
<ellipse fill="#FFFFFF" stroke="#494D40" stroke-miterlimit="10" cx="342.023" cy="177.992" rx="3.647" ry="1.635"/>
<ellipse fill="#FFFFFF" stroke="#494D40" stroke-miterlimit="10" cx="342.023" cy="181.26" rx="3.647" ry="1.635"/>
<ellipse fill="#FFFFFF" stroke="#494D40" stroke-miterlimit="10" cx="342.023" cy="184.527" rx="3.647" ry="1.635"/>
<ellipse fill="#FFFFFF" stroke="#494D40" stroke-miterlimit="10" cx="342.023" cy="187.795" rx="3.647" ry="1.635"/>
<ellipse fill="#FFFFFF" stroke="#494D40" stroke-miterlimit="10" cx="342.023" cy="191.063" rx="3.647" ry="1.635"/>
<ellipse fill="#FFFFFF" stroke="#494D40" stroke-miterlimit="10" cx="342.023" cy="194.33" rx="3.647" ry="1.635"/>
<ellipse fill="#FFFFFF" stroke="#494D40" stroke-miterlimit="10" cx="342.023" cy="197.598" rx="3.647" ry="1.635"/>
<ellipse fill="#FFFFFF" stroke="#494D40" stroke-miterlimit="10" cx="342.023" cy="200.866" rx="3.647" ry="1.635"/>
<ellipse fill="#FFFFFF" stroke="#494D40" stroke-miterlimit="10" cx="195.804" cy="171.457" rx="3.647" ry="1.635"/>
<ellipse fill="#FFFFFF" stroke="#494D40" stroke-miterlimit="10" cx="195.804" cy="174.725" rx="3.647" ry="1.635"/>
<ellipse fill="#FFFFFF" stroke="#494D40" stroke-miterlimit="10" cx="195.804" cy="177.992" rx="3.647" ry="1.635"/>
<ellipse fill="#FFFFFF" stroke="#494D40" stroke-miterlimit="10" cx="195.804" cy="181.26" rx="3.647" ry="1.635"/>
<ellipse fill="#FFFFFF" stroke="#494D40" stroke-miterlimit="10" cx="195.804" cy="184.527" rx="3.647" ry="1.635"/>
<ellipse fill="#FFFFFF" stroke="#494D40" stroke-miterlimit="10" cx="195.804" cy="187.795" rx="3.647" ry="1.635"/>
<ellipse fill="#FFFFFF" stroke="#494D40" stroke-miterlimit="10" cx="195.804" cy="191.063" rx="3.647" ry="1.635"/>
<ellipse fill="#FFFFFF" stroke="#494D40" stroke-miterlimit="10" cx="195.804" cy="194.33" rx="3.647" ry="1.635"/>
<ellipse fill="#FFFFFF" stroke="#494D40" stroke-miterlimit="10" cx="195.804" cy="197.598" rx="3.647" ry="1.635"/>
<ellipse fill="#FFFFFF" stroke="#494D40" stroke-miterlimit="10" cx="195.804" cy="200.866" rx="3.647" ry="1.635"/>
<polygon fill="#F84322" stroke="#000000" stroke-width="3" stroke-miterlimit="10" points="192.336,125.834 343.918,120.662 
	345.081,163.434 193.764,167.607 "/>
<g>
	<polygon fill="none" stroke="#31342B" stroke-width="2" stroke-miterlimit="10" points="345.081,163.479 342.37,163.551 
		339.698,163.623 339.688,163.623 335.506,163.746 335.497,163.746 332.424,163.824 328.633,163.932 325.151,164.025 
		321.75,164.117 317.877,164.225 314.888,164.314 310.616,164.426 310.604,164.426 308.014,164.5 303.331,164.625 301.151,164.686 
		296.058,164.826 294.267,164.881 288.795,165.025 287.415,165.066 281.521,165.236 281.51,165.236 280.542,165.264 280.53,165.262 
		274.269,165.428 273.667,165.449 266.974,165.637 266.793,165.635 259.92,165.83 259.709,165.838 253.058,166.016 252.438,166.037 
		246.194,166.203 245.165,166.238 239.321,166.398 237.892,166.438 232.448,166.584 230.618,166.639 225.584,166.779 
		223.344,166.838 218.711,166.965 216.081,167.039 216.07,167.039 211.838,167.15 208.809,167.24 204.967,167.348 201.536,167.439 
		198.105,167.533 194.273,167.641 194.264,167.641 193.762,167.652 193.527,160.68 193.456,158.699 193.148,149.643 
		193.127,149.113 192.799,139.488 192.771,138.586 192.471,129.893 192.393,127.551 192.334,125.879 195.387,125.771 
		198.148,125.68 202.682,125.531 204.982,125.453 204.993,125.453 210.006,125.271 211.823,125.217 217.295,125.033 
		217.306,125.033 218.667,124.98 224.61,124.783 225.5,124.744 231.915,124.531 232.334,124.518 232.345,124.518 239.179,124.281 
		239.219,124.283 246.013,124.045 246.522,124.033 252.866,123.811 253.836,123.783 259.7,123.584 259.709,123.584 261.142,123.533 
		266.543,123.348 268.446,123.283 273.388,123.111 275.76,123.033 280.222,122.885 283.063,122.783 287.075,122.648 
		290.377,122.533 293.909,122.412 297.672,122.283 300.754,122.176 304.985,122.035 307.586,121.949 312.28,121.783 
		314.431,121.713 319.584,121.533 321.265,121.477 326.898,121.285 328.118,121.25 334.202,121.035 334.952,121.016 
		341.517,120.785 341.786,120.779 343.917,120.709 344.01,124.109 344.099,127.201 344.099,127.211 344.312,135.025 
		344.356,136.895 344.355,136.904 344.602,145.939 344.602,145.949 344.622,146.6 344.89,156.285 344.89,156.295 344.901,156.863 
		344.901,156.875 	"/>
	<polyline fill="none" stroke="#31342B" stroke-width="2" stroke-miterlimit="10" points="198.105,167.533 196.282,164.797 
		193.527,160.68 	"/>
	<polyline fill="none" stroke="#31342B" stroke-width="2" stroke-miterlimit="10" points="204.967,167.348 203.333,164.895 
		199.872,159.717 196.413,154.527 193.148,149.643 192.954,149.359 	"/>
	<polyline fill="none" stroke="#31342B" stroke-width="2" stroke-miterlimit="10" points="211.838,167.15 210.4,164.99 
		206.941,159.803 203.482,154.625 200.012,149.438 196.564,144.26 193.094,139.07 192.771,138.586 	"/>
	<polyline fill="none" stroke="#31342B" stroke-width="2" stroke-miterlimit="10" points="218.711,166.965 217.458,165.088 
		213.999,159.91 210.532,154.723 207.083,149.545 203.613,144.355 200.152,139.178 196.695,133.99 193.234,128.813 192.393,127.551 
			"/>
	<polyline fill="none" stroke="#31342B" stroke-width="2" stroke-miterlimit="10" points="225.584,166.779 224.517,165.176 
		221.058,159.996 217.598,154.818 214.14,149.631 210.682,144.453 207.223,139.266 203.764,134.088 200.295,128.898 198.148,125.68 
			"/>
	<polyline fill="none" stroke="#31342B" stroke-width="2" stroke-miterlimit="10" points="204.982,125.453 204.993,125.453 
		207.363,129.006 210.822,134.184 210.822,134.193 214.28,139.371 217.739,144.549 221.198,149.738 224.657,154.916 
		228.116,160.104 231.577,165.281 232.448,166.584 	"/>
	<polyline fill="none" stroke="#31342B" stroke-width="2" stroke-miterlimit="10" points="239.321,166.398 238.646,165.379 
		235.187,160.201 231.717,155.012 228.256,149.834 224.797,144.646 221.338,139.469 217.879,134.291 214.42,129.104 
		211.823,125.217 	"/>
	<polyline fill="none" stroke="#31342B" stroke-width="2" stroke-miterlimit="10" points="218.667,124.98 221.479,129.199 
		224.938,134.377 228.397,139.566 231.858,144.744 235.317,149.922 235.317,149.932 238.786,155.109 242.245,160.287 
		245.704,165.475 246.194,166.203 	"/>
	<polyline fill="none" stroke="#31342B" stroke-width="2" stroke-miterlimit="10" points="225.5,124.744 228.538,129.297 
		231.999,134.484 235.458,139.662 238.917,144.85 242.375,150.029 245.834,155.207 249.305,160.395 252.765,165.572 
		253.058,166.016 	"/>
	<polyline fill="none" stroke="#31342B" stroke-width="2" stroke-miterlimit="10" points="232.334,124.518 232.345,124.518 
		235.599,129.393 239.058,134.582 242.517,139.76 245.985,144.947 249.445,150.125 252.905,155.303 256.364,160.49 259.823,165.678 
		259.92,165.83 	"/>
	<polyline fill="none" stroke="#31342B" stroke-width="2" stroke-miterlimit="10" points="239.179,124.281 239.198,124.313 
		242.657,129.49 246.127,134.678 249.586,139.855 253.045,145.033 256.504,150.223 259.963,155.4 263.422,160.588 266.793,165.635 
		266.883,165.766 	"/>
	<polyline fill="none" stroke="#31342B" stroke-width="2" stroke-miterlimit="10" points="246.013,124.045 246.258,124.41 
		249.727,129.588 253.187,134.775 256.646,139.953 260.104,145.141 263.563,150.318 267.023,155.508 270.483,160.686 
		273.667,165.449 	"/>
	<polyline fill="none" stroke="#31342B" stroke-width="2" stroke-miterlimit="10" points="252.866,123.811 253.327,124.506 
		256.786,129.684 260.247,134.873 263.704,140.051 267.165,145.229 270.624,150.416 274.083,155.594 277.551,160.781 
		280.53,165.262 280.542,165.264 	"/>
	<polyline fill="none" stroke="#31342B" stroke-width="2" stroke-miterlimit="10" points="287.415,165.066 284.61,160.879 
		281.151,155.701 277.683,150.512 274.233,145.334 270.765,140.146 267.306,134.969 263.846,129.781 260.387,124.604 
		259.709,123.584 259.7,123.584 	"/>
	<polyline fill="none" stroke="#31342B" stroke-width="2" stroke-miterlimit="10" points="294.267,164.881 291.661,160.975 
		288.202,155.797 284.752,150.619 281.282,145.432 277.823,140.254 277.823,140.244 274.364,135.066 270.905,129.877 
		267.446,124.699 266.543,123.348 	"/>
	<polyline fill="none" stroke="#31342B" stroke-width="2" stroke-miterlimit="10" points="301.151,164.686 298.729,161.063 
		295.271,155.885 291.812,150.707 288.353,145.529 284.893,140.34 281.435,135.162 277.963,129.975 274.515,124.797 
		273.388,123.111 	"/>
	<polyline fill="none" stroke="#31342B" stroke-width="2" stroke-miterlimit="10" points="308.014,164.5 305.79,161.158 
		302.331,155.98 298.872,150.803 295.411,145.615 291.952,140.447 288.493,135.26 285.034,130.082 281.564,124.893 280.222,122.885 
			"/>
	<polyline fill="none" stroke="#31342B" stroke-width="2" stroke-miterlimit="10" points="314.888,164.314 312.849,161.266 
		309.39,156.078 305.931,150.9 302.472,145.713 299.012,140.533 295.551,135.355 292.092,130.168 288.633,124.99 287.075,122.648 	
		"/>
	<polyline fill="none" stroke="#31342B" stroke-width="2" stroke-miterlimit="10" points="293.909,122.412 295.693,125.088 
		299.152,130.275 302.612,135.453 306.071,140.631 309.53,145.809 312.989,150.996 316.448,156.174 319.907,161.361 321.75,164.117 
			"/>
	<polyline fill="none" stroke="#31342B" stroke-width="2" stroke-miterlimit="10" points="328.633,163.932 326.978,161.449 
		323.519,156.271 320.06,151.094 316.588,145.904 313.129,140.727 309.67,135.539 306.211,130.361 302.763,125.184 300.754,122.176 
			"/>
	<polyline fill="none" stroke="#31342B" stroke-width="2" stroke-miterlimit="10" points="335.506,163.746 335.497,163.746 
		334.036,161.545 330.577,156.369 327.118,151.189 323.659,146.002 320.19,140.824 316.729,135.637 313.271,130.459 
		309.812,125.281 307.586,121.949 	"/>
	<polyline fill="none" stroke="#31342B" stroke-width="2" stroke-miterlimit="10" points="342.37,163.551 341.097,161.643 
		337.637,156.465 334.178,151.277 330.717,146.1 327.258,140.922 323.799,135.732 320.34,130.555 316.872,125.377 316.872,125.367 
		314.431,121.713 	"/>
	<polyline fill="none" stroke="#31342B" stroke-width="2" stroke-miterlimit="10" points="321.265,121.477 323.931,125.475 
		327.39,130.652 330.858,135.84 334.318,141.018 337.777,146.195 341.237,151.385 344.696,156.563 344.901,156.863 344.901,156.875 
			"/>
	<polyline fill="none" stroke="#31342B" stroke-width="2" stroke-miterlimit="10" points="328.118,121.25 331,125.561 
		334.459,130.748 337.918,135.926 341.377,141.115 344.602,145.939 344.602,145.949 344.836,146.293 	"/>
	<polyline fill="none" stroke="#31342B" stroke-width="2" stroke-miterlimit="10" points="334.952,121.016 338.06,125.668 
		341.519,130.846 344.312,135.025 	"/>
	<polyline fill="none" stroke="#31342B" stroke-width="2" stroke-miterlimit="10" points="341.659,120.586 341.786,120.779 
		344.01,124.109 	"/>
	<polyline fill="none" stroke="#31342B" stroke-width="2" stroke-miterlimit="10" points="344.89,156.285 344.89,156.295 
		344.696,156.563 341.097,161.643 339.698,163.623 339.688,163.623 	"/>
	<polyline fill="none" stroke="#31342B" stroke-width="2" stroke-miterlimit="10" points="344.836,146.293 344.622,146.6 
		341.237,151.385 337.637,156.465 334.036,161.545 332.424,163.824 	"/>
	<polyline fill="none" stroke="#31342B" stroke-width="2" stroke-miterlimit="10" points="325.151,164.025 326.978,161.449 
		330.577,156.369 334.178,151.277 337.777,146.195 341.377,141.115 344.355,136.904 344.356,136.895 	"/>
	<polyline fill="none" stroke="#31342B" stroke-width="2" stroke-miterlimit="10" points="344.099,127.201 344.099,127.211 
		341.519,130.846 337.918,135.926 334.318,141.018 330.717,146.1 327.118,151.189 323.519,156.271 319.907,161.361 317.877,164.225 
			"/>
	<polyline fill="none" stroke="#31342B" stroke-width="2" stroke-miterlimit="10" points="341.659,120.586 341.517,120.785 
		338.06,125.668 334.459,130.748 330.858,135.84 327.258,140.922 323.659,146.002 320.06,151.094 316.448,156.174 312.849,161.266 
		310.616,164.426 310.604,164.426 	"/>
	<polyline fill="none" stroke="#31342B" stroke-width="2" stroke-miterlimit="10" points="334.202,121.035 331,125.561 
		327.39,130.652 323.799,135.732 320.19,140.824 316.588,145.904 312.989,150.996 309.39,156.078 305.79,161.158 303.331,164.625 	
		"/>
	<polyline fill="none" stroke="#31342B" stroke-width="2" stroke-miterlimit="10" points="326.898,121.285 323.931,125.475 
		320.34,130.555 316.729,135.637 313.129,140.727 309.53,145.809 305.931,150.9 302.331,155.98 298.729,161.063 296.058,164.826 	
		"/>
	<polyline fill="none" stroke="#31342B" stroke-width="2" stroke-miterlimit="10" points="288.795,165.025 291.661,160.975 
		295.271,155.885 298.872,150.803 302.472,145.713 306.071,140.631 309.67,135.539 313.271,130.459 316.872,125.377 
		316.872,125.367 319.584,121.533 	"/>
	<polyline fill="none" stroke="#31342B" stroke-width="2" stroke-miterlimit="10" points="312.28,121.783 309.812,125.281 
		306.211,130.361 302.612,135.453 299.012,140.533 295.411,145.615 291.812,150.707 288.202,155.797 284.61,160.879 
		281.521,165.236 281.51,165.236 	"/>
	<polyline fill="none" stroke="#31342B" stroke-width="2" stroke-miterlimit="10" points="304.985,122.035 302.763,125.184 
		299.152,130.275 295.551,135.355 291.952,140.447 288.353,145.529 284.752,150.619 281.151,155.701 277.551,160.781 
		274.269,165.428 	"/>
	<polyline fill="none" stroke="#31342B" stroke-width="2" stroke-miterlimit="10" points="266.883,165.766 266.974,165.637 
		270.483,160.686 274.083,155.594 277.683,150.512 281.282,145.432 284.893,140.34 288.493,135.26 292.092,130.168 295.693,125.088 
		297.672,122.283 	"/>
	<polyline fill="none" stroke="#31342B" stroke-width="2" stroke-miterlimit="10" points="290.377,122.533 288.633,124.99 
		285.034,130.082 281.435,135.162 277.823,140.244 277.823,140.254 274.233,145.334 270.624,150.416 267.023,155.508 
		263.422,160.588 259.823,165.678 259.709,165.838 	"/>
	<polyline fill="none" stroke="#31342B" stroke-width="2" stroke-miterlimit="10" points="283.063,122.783 281.564,124.893 
		277.963,129.975 274.364,135.066 270.765,140.146 267.165,145.229 263.563,150.318 259.963,155.4 256.364,160.49 252.765,165.572 
		252.438,166.037 	"/>
	<polyline fill="none" stroke="#31342B" stroke-width="2" stroke-miterlimit="10" points="245.165,166.238 245.704,165.475 
		249.305,160.395 252.905,155.303 256.504,150.223 260.104,145.141 263.704,140.051 267.306,134.969 270.905,129.877 
		274.515,124.797 275.76,123.033 	"/>
	<polyline fill="none" stroke="#31342B" stroke-width="2" stroke-miterlimit="10" points="268.446,123.283 267.446,124.699 
		263.846,129.781 260.247,134.873 256.646,139.953 253.045,145.033 249.445,150.125 245.834,155.207 242.245,160.287 
		238.646,165.379 237.892,166.438 	"/>
	<polyline fill="none" stroke="#31342B" stroke-width="2" stroke-miterlimit="10" points="230.618,166.639 231.577,165.281 
		235.187,160.201 238.786,155.109 242.375,150.029 245.985,144.947 249.586,139.855 253.187,134.775 256.786,129.684 
		260.387,124.604 261.142,123.533 	"/>
	<polyline fill="none" stroke="#31342B" stroke-width="2" stroke-miterlimit="10" points="223.344,166.838 224.517,165.176 
		228.116,160.104 231.717,155.012 235.317,149.932 235.317,149.922 238.917,144.85 242.517,139.76 246.127,134.678 249.727,129.588 
		253.327,124.506 253.836,123.783 	"/>
	<polyline fill="none" stroke="#31342B" stroke-width="2" stroke-miterlimit="10" points="246.522,124.033 246.258,124.41 
		242.657,129.49 239.058,134.582 235.458,139.662 231.858,144.744 228.256,149.834 224.657,154.916 221.058,159.996 
		217.458,165.088 216.081,167.039 216.07,167.039 	"/>
	<polyline fill="none" stroke="#31342B" stroke-width="2" stroke-miterlimit="10" points="208.809,167.24 210.4,164.99 
		213.999,159.91 217.598,154.818 221.198,149.738 224.797,144.646 228.397,139.566 231.999,134.484 235.599,129.393 
		239.198,124.313 239.219,124.283 	"/>
	<polyline fill="none" stroke="#31342B" stroke-width="2" stroke-miterlimit="10" points="231.915,124.531 228.538,129.297 
		224.938,134.377 221.338,139.469 217.739,144.549 214.14,149.631 210.532,154.723 206.941,159.803 203.333,164.895 
		201.536,167.439 	"/>
	<polyline fill="none" stroke="#31342B" stroke-width="2" stroke-miterlimit="10" points="194.264,167.641 194.273,167.641 
		196.282,164.797 199.872,159.717 203.482,154.625 207.083,149.545 210.682,144.453 214.28,139.371 217.879,134.291 
		221.479,129.199 224.61,124.783 	"/>
	<polyline fill="none" stroke="#31342B" stroke-width="2" stroke-miterlimit="10" points="193.456,158.699 196.413,154.527 
		200.012,149.438 203.613,144.355 207.223,139.266 210.822,134.193 210.822,134.184 214.42,129.104 217.295,125.033 
		217.306,125.033 	"/>
	<polyline fill="none" stroke="#31342B" stroke-width="2" stroke-miterlimit="10" points="210.006,125.271 207.363,129.006 
		203.764,134.088 200.152,139.178 196.564,144.26 193.127,149.113 192.954,149.359 	"/>
	<polyline fill="none" stroke="#31342B" stroke-width="2" stroke-miterlimit="10" points="202.682,125.531 200.295,128.898 
		196.695,133.99 193.094,139.07 192.799,139.488 	"/>
	<polyline fill="none" stroke="#31342B" stroke-width="2" stroke-miterlimit="10" points="195.387,125.771 193.234,128.813 
		192.471,129.893 	"/>
</g>
<rect x="298.996" y="119.449" transform="matrix(0.9996 -0.028 0.028 0.9996 -3.8927 8.4981)" fill="#F68828" width="4.25" height="47.251"/>
<g>
	<path fill="#31342B" d="M301.118,120.949l1.241,44.232l-1.249,0.035l-1.242-44.232L301.118,120.949 M304.032,117.867l-7.246,0.203
		l1.409,50.229l7.247-0.203L304.032,117.867L304.032,117.867z"/>
</g>
<rect x="326.576" y="118.964" transform="matrix(0.9997 -0.0262 0.0262 0.9997 -3.6219 8.6582)" fill="#F68828" width="4.25" height="47.252"/>
<g>
	<path fill="#31342B" d="M328.768,120.459l1.148,44.234l-1.25,0.032l-1.148-44.233L328.768,120.459 M331.688,117.383l-7.248,0.188
		l1.305,50.234l7.248-0.189L331.688,117.383L331.688,117.383z"/>
</g>
<rect x="224.566" y="127.602" transform="matrix(0.9993 -0.0382 0.0382 0.9993 -5.3851 9.2247)" fill="#F68828" width="27.786" height="35.571"/>
<g>
	<path fill="#31342B" d="M250.221,128.654l1.248,32.547l-24.766,0.949l-1.25-32.547L250.221,128.654 M253.104,125.543l-30.764,1.178
		l1.479,38.543l30.763-1.18L253.104,125.543L253.104,125.543z"/>
</g>
<g>
	<polygon fill="#F26B61" stroke="#8C0303" stroke-width="2" stroke-miterlimit="10" points="135.786,77.742 148.006,37.559 
		180.786,47.525 168.553,87.708 	"/>
	
		<rect x="120.863" y="88.797" transform="matrix(0.291 -0.9567 0.9567 0.291 1.5468 213.929)" fill="#F0ECCA" stroke="#8C0303" stroke-width="2" stroke-miterlimit="10" width="48.501" height="34.248"/>
	
		<rect x="91.1" y="146.791" transform="matrix(0.291 -0.9567 0.9567 0.291 -66.4435 238.1729)" fill="#F26D5E" stroke="#8C0303" stroke-width="2" stroke-miterlimit="10" width="72.748" height="34.249"/>
	<line fill="none" stroke="#8C0303" stroke-width="2" stroke-miterlimit="10" x1="167.238" y1="92.031" x2="158.072" y2="89.243"/>
	<line fill="none" stroke="#8C0303" stroke-width="2" stroke-miterlimit="10" x1="152.945" y1="87.684" x2="134.471" y2="82.065"/>
	<line fill="none" stroke="#8C0303" stroke-width="2" stroke-miterlimit="10" x1="156.522" y1="88.772" x2="154.765" y2="88.237"/>
	
		<line fill="none" stroke="#8C0303" stroke-width="2" stroke-miterlimit="10" x1="123.021" y1="119.715" x2="133.583" y2="122.928"/>
	
		<line fill="none" stroke="#8C0303" stroke-width="2" stroke-miterlimit="10" x1="135.049" y1="123.373" x2="136.808" y2="123.908"/>
	<line fill="none" stroke="#8C0303" stroke-width="2" stroke-miterlimit="10" x1="138.418" y1="124.396" x2="155.789" y2="129.68"/>
	
		<ellipse transform="matrix(0.9567 0.2912 -0.2912 0.9567 62.4875 -30.5137)" fill="#FFFFFF" stroke="#8C0303" stroke-miterlimit="10" cx="133.749" cy="194.659" rx="1.633" ry="3.647"/>
	
		<ellipse transform="matrix(0.9567 0.2909 -0.2909 0.9567 62.0029 -29.6194)" fill="#FFFFFF" stroke="#8C0303" stroke-miterlimit="10" cx="130.615" cy="193.714" rx="1.633" ry="3.648"/>
	
		<ellipse transform="matrix(0.9567 0.2912 -0.2912 0.9567 61.65 -28.7733)" fill="#FFFFFF" stroke="#8C0303" stroke-miterlimit="10" cx="127.505" cy="192.76" rx="1.635" ry="3.648"/>
	
		<ellipse transform="matrix(0.9567 0.2911 -0.2911 0.9567 61.2159 -27.8997)" fill="#FFFFFF" stroke="#8C0303" stroke-miterlimit="10" cx="124.388" cy="191.817" rx="1.634" ry="3.647"/>
	
		<ellipse transform="matrix(0.9567 0.2911 -0.2911 0.9567 60.8001 -27.0264)" fill="#FFFFFF" stroke="#8C0303" stroke-miterlimit="10" cx="121.245" cy="190.856" rx="1.634" ry="3.647"/>
	
		<ellipse transform="matrix(0.9568 0.2909 -0.2909 0.9568 60.3523 -26.1454)" fill="#FFFFFF" stroke="#8C0303" stroke-miterlimit="10" cx="118.112" cy="189.913" rx="1.635" ry="3.647"/>
	
		<ellipse transform="matrix(0.9567 0.2911 -0.2911 0.9567 59.9772 -25.291)" fill="#FFFFFF" stroke="#8C0303" stroke-miterlimit="10" cx="115" cy="188.958" rx="1.634" ry="3.647"/>
	
		<ellipse transform="matrix(0.9567 0.2912 -0.2912 0.9567 59.6011 -24.4291)" fill="#FFFFFF" stroke="#8C0303" stroke-miterlimit="10" cx="111.866" cy="188.005" rx="1.633" ry="3.647"/>
	
		<ellipse transform="matrix(0.9566 0.2913 -0.2913 0.9566 59.2123 -23.5661)" fill="#FFFFFF" stroke="#8C0303" stroke-miterlimit="10" cx="108.742" cy="187.054" rx="1.634" ry="3.647"/>
	
		<ellipse transform="matrix(0.9567 0.291 -0.291 0.9567 58.7165 -22.6777)" fill="#FFFFFF" stroke="#8C0303" stroke-miterlimit="10" cx="105.615" cy="186.103" rx="1.633" ry="3.647"/>
	<path fill="#FFFFFF" stroke="#8C0303" stroke-miterlimit="10" d="M175.239,58.263c-0.863-0.262-1.088-2.038-0.501-3.964
		c0.586-1.928,1.76-3.277,2.623-3.015c0.866,0.263,1.093,2.038,0.503,3.966C177.278,57.176,176.104,58.525,175.239,58.263z"/>
	
		<ellipse transform="matrix(0.9567 0.2909 -0.2909 0.9567 23.149 -48.0546)" fill="#FFFFFF" stroke="#8C0303" stroke-miterlimit="10" cx="173.181" cy="53.823" rx="1.634" ry="3.647"/>
	
		<ellipse transform="matrix(0.9567 0.2909 -0.2909 0.9567 22.7374 -47.1811)" fill="#FFFFFF" stroke="#8C0303" stroke-miterlimit="10" cx="170.045" cy="52.878" rx="1.633" ry="3.647"/>
	
		<ellipse transform="matrix(0.9567 0.291 -0.291 0.9567 22.3382 -46.3366)" fill="#FFFFFF" stroke="#8C0303" stroke-miterlimit="10" cx="166.929" cy="51.921" rx="1.633" ry="3.647"/>
	
		<ellipse transform="matrix(0.9567 0.2909 -0.2909 0.9567 21.9111 -45.4493)" fill="#FFFFFF" stroke="#8C0303" stroke-miterlimit="10" cx="163.801" cy="50.962" rx="1.634" ry="3.647"/>
	
		<ellipse transform="matrix(0.9567 0.2911 -0.2911 0.9567 21.5182 -44.6051)" fill="#FFFFFF" stroke="#8C0303" stroke-miterlimit="10" cx="160.676" cy="50.02" rx="1.633" ry="3.647"/>
	
		<ellipse transform="matrix(0.9567 0.2909 -0.2909 0.9567 21.0864 -43.7106)" fill="#FFFFFF" stroke="#8C0303" stroke-miterlimit="10" cx="157.548" cy="49.061" rx="1.633" ry="3.647"/>
	
		<ellipse transform="matrix(0.9567 0.2911 -0.2911 0.9567 20.6903 -42.8627)" fill="#FFFFFF" stroke="#8C0303" stroke-miterlimit="10" cx="154.421" cy="48.116" rx="1.634" ry="3.648"/>
	
		<ellipse transform="matrix(0.9568 0.2909 -0.2909 0.9568 20.2642 -41.9674)" fill="#FFFFFF" stroke="#8C0303" stroke-miterlimit="10" cx="151.289" cy="47.175" rx="1.634" ry="3.647"/>
	
		<ellipse transform="matrix(0.9567 0.2911 -0.2911 0.9567 19.869 -41.1292)" fill="#FFFFFF" stroke="#8C0303" stroke-miterlimit="10" cx="148.169" cy="46.215" rx="1.633" ry="3.648"/>
</g>
<polygon fill="#009466" stroke="#000000" stroke-width="3" stroke-miterlimit="10" points="138.587,60.685 86.203,203.025 
	46.152,187.969 99.361,46.251 "/>
<g>
	<polygon fill="none" stroke="#31342B" stroke-width="2" stroke-miterlimit="10" points="46.111,187.953 47.066,185.414 
		48.006,182.912 48.01,182.904 49.475,178.984 49.479,178.975 50.564,176.102 51.894,172.549 53.121,169.289 54.318,166.104 
		55.681,162.477 56.725,159.674 58.233,155.676 58.237,155.666 59.146,153.238 60.796,148.854 61.563,146.813 63.354,142.041 
		63.978,140.361 65.907,135.24 66.39,133.947 68.456,128.424 68.46,128.414 68.801,127.506 68.806,127.496 71.015,121.635 
		71.222,121.07 73.572,114.8 73.643,114.634 76.054,108.195 76.126,107.997 78.471,101.769 78.684,101.186 80.885,95.342 
		81.241,94.375 83.297,88.903 83.8,87.564 85.717,82.467 86.357,80.752 88.125,76.038 88.915,73.939 90.546,69.602 91.47,67.136 
		91.474,67.127 92.965,63.166 94.026,60.325 95.376,56.726 96.586,53.513 97.793,50.3 99.139,46.711 99.143,46.702 99.319,46.233 
		105.866,48.646 107.728,49.326 116.23,52.458 116.73,52.637 125.768,55.963 126.613,56.278 134.778,59.279 136.976,60.089 
		138.546,60.667 137.494,63.534 136.539,66.126 134.965,70.38 134.171,72.541 134.166,72.549 132.443,77.262 131.808,78.968 
		129.914,84.106 129.91,84.115 129.445,85.396 127.387,90.975 127.088,91.814 124.864,97.834 124.719,98.229 124.715,98.238 
		122.356,104.656 122.34,104.693 119.998,111.074 119.816,111.551 117.631,117.51 117.289,118.42 115.263,123.926 115.259,123.934 
		114.766,125.279 112.9,130.354 112.242,132.139 110.537,136.779 109.715,139.006 108.17,143.195 107.191,145.865 105.803,149.631 
		104.664,152.732 103.445,156.049 102.145,159.582 101.081,162.479 99.616,166.449 98.714,168.891 97.098,173.301 96.352,175.318 
		94.574,180.16 93.992,181.736 92.046,187.027 91.617,188.17 89.522,193.887 89.258,194.588 86.995,200.754 86.899,201.006 
		86.16,203.006 82.977,201.811 80.079,200.727 80.069,200.723 72.753,197.973 71.005,197.309 70.995,197.303 62.535,194.123 
		62.526,194.121 61.916,193.895 52.846,190.488 52.836,190.484 52.305,190.281 52.295,190.277 	"/>
	<polyline fill="none" stroke="#31342B" stroke-width="2" stroke-miterlimit="10" points="97.793,50.3 101.015,49.643 
		105.866,48.646 	"/>
	<polyline fill="none" stroke="#31342B" stroke-width="2" stroke-miterlimit="10" points="95.376,56.726 98.266,56.136 
		104.365,54.884 110.476,53.637 116.23,52.458 116.566,52.383 	"/>
	<polyline fill="none" stroke="#31342B" stroke-width="2" stroke-miterlimit="10" points="92.965,63.166 95.51,62.646 
		101.619,61.399 107.72,60.149 113.832,58.892 119.929,57.651 126.043,56.394 126.613,56.278 	"/>
	<polyline fill="none" stroke="#31342B" stroke-width="2" stroke-miterlimit="10" points="90.546,69.602 92.758,69.148 
		98.857,67.897 104.971,66.64 111.066,65.399 117.18,64.143 123.28,62.892 129.391,61.646 135.49,60.394 136.976,60.089 	"/>
	<polyline fill="none" stroke="#31342B" stroke-width="2" stroke-miterlimit="10" points="88.125,76.038 90.014,75.653 
		96.114,74.402 102.215,73.151 108.324,71.905 114.424,70.654 120.533,69.406 126.634,68.156 132.747,66.9 136.539,66.126 	"/>
	<polyline fill="none" stroke="#31342B" stroke-width="2" stroke-miterlimit="10" points="134.171,72.541 134.166,72.549 
		129.981,73.406 123.883,74.658 123.872,74.653 117.771,75.905 111.672,77.156 105.563,78.402 99.462,79.653 93.354,80.899 
		87.253,82.151 85.717,82.467 	"/>
	<polyline fill="none" stroke="#31342B" stroke-width="2" stroke-miterlimit="10" points="83.297,88.903 84.496,88.662 
		90.596,87.411 96.71,86.154 102.811,84.903 108.92,83.656 115.02,82.406 121.12,81.155 127.229,79.908 131.808,78.968 	"/>
	<polyline fill="none" stroke="#31342B" stroke-width="2" stroke-miterlimit="10" points="129.445,85.396 124.477,86.409 
		118.377,87.66 112.268,88.906 106.166,90.159 100.066,91.409 100.058,91.405 93.954,92.665 87.854,93.916 81.744,95.162 
		80.885,95.342 	"/>
	<polyline fill="none" stroke="#31342B" stroke-width="2" stroke-miterlimit="10" points="127.088,91.814 121.726,92.91 
		115.615,94.159 109.516,95.409 103.406,96.656 97.305,97.906 91.205,99.157 85.092,100.414 78.991,101.665 78.471,101.769 	"/>
	<polyline fill="none" stroke="#31342B" stroke-width="2" stroke-miterlimit="10" points="124.719,98.229 124.715,98.238 
		118.973,99.413 112.863,100.659 106.763,101.91 100.65,103.166 94.55,104.417 88.449,105.668 82.34,106.915 76.23,108.162 
		76.054,108.195 	"/>
	<polyline fill="none" stroke="#31342B" stroke-width="2" stroke-miterlimit="10" points="122.356,104.656 122.32,104.663 
		116.22,105.913 110.107,107.169 104.007,108.42 97.906,109.672 91.797,110.918 85.697,112.169 79.588,113.416 73.643,114.634 
		73.487,114.667 	"/>
	<polyline fill="none" stroke="#31342B" stroke-width="2" stroke-miterlimit="10" points="119.998,111.074 119.567,111.164 
		113.464,112.423 107.354,113.671 101.255,114.922 95.145,116.168 89.045,117.42 82.935,118.666 76.834,119.918 71.222,121.07 	"/>
	<polyline fill="none" stroke="#31342B" stroke-width="2" stroke-miterlimit="10" points="117.631,117.51 116.812,117.674 
		110.712,118.926 104.602,120.172 98.502,121.422 92.401,122.674 86.292,123.922 80.192,125.172 74.08,126.428 68.806,127.496 
		68.801,127.506 	"/>
	<polyline fill="none" stroke="#31342B" stroke-width="2" stroke-miterlimit="10" points="66.39,133.947 71.326,132.93 
		77.427,131.678 83.54,130.422 89.637,129.182 95.75,127.926 101.85,126.676 107.959,125.428 114.06,124.176 115.259,123.934 
		115.263,123.926 	"/>
	<polyline fill="none" stroke="#31342B" stroke-width="2" stroke-miterlimit="10" points="63.978,140.361 68.578,139.422 
		74.679,138.172 80.775,136.93 86.889,135.672 92.988,134.422 92.997,134.426 99.098,133.176 105.207,131.93 111.307,130.678 
		112.9,130.354 	"/>
	<polyline fill="none" stroke="#31342B" stroke-width="2" stroke-miterlimit="10" points="61.563,146.813 65.831,145.936 
		71.932,144.686 78.031,143.436 84.131,142.184 90.241,140.938 96.341,139.688 102.455,138.43 108.552,137.188 110.537,136.779 	"/>
	<polyline fill="none" stroke="#31342B" stroke-width="2" stroke-miterlimit="10" points="59.146,153.238 63.08,152.438 
		69.179,151.188 75.279,149.938 81.389,148.689 87.48,147.436 93.589,146.188 99.689,144.936 105.803,143.68 108.17,143.195 	"/>
	<polyline fill="none" stroke="#31342B" stroke-width="2" stroke-miterlimit="10" points="56.725,159.674 60.318,158.936 
		66.427,157.689 72.526,156.438 78.636,155.191 84.738,153.941 90.838,152.689 96.946,151.441 103.047,150.191 105.803,149.631 	"/>
	<polyline fill="none" stroke="#31342B" stroke-width="2" stroke-miterlimit="10" points="103.445,156.049 100.294,156.693 
		94.186,157.939 88.085,159.191 81.984,160.441 75.885,161.691 69.775,162.939 63.676,164.189 57.566,165.436 54.318,166.104 	"/>
	<polyline fill="none" stroke="#31342B" stroke-width="2" stroke-miterlimit="10" points="51.894,172.549 54.818,171.951 
		60.918,170.701 67.019,169.451 73.133,168.193 79.232,166.943 85.343,165.695 91.441,164.445 97.538,163.203 101.081,162.479 	"/>
	<polyline fill="none" stroke="#31342B" stroke-width="2" stroke-miterlimit="10" points="49.475,178.984 49.479,178.975 
		52.066,178.453 58.166,177.201 64.267,175.951 70.377,174.705 76.48,173.445 82.59,172.197 88.689,170.945 94.79,169.695 
		98.714,168.891 	"/>
	<polyline fill="none" stroke="#31342B" stroke-width="2" stroke-miterlimit="10" points="47.066,185.414 49.314,184.955 
		55.414,183.703 61.523,182.457 67.624,181.205 73.724,179.955 79.834,178.709 85.934,177.457 92.037,176.197 92.048,176.201 
		96.352,175.318 	"/>
	<polyline fill="none" stroke="#31342B" stroke-width="2" stroke-miterlimit="10" points="93.992,181.736 89.285,182.699 
		83.186,183.949 77.072,185.205 70.973,186.457 64.872,187.707 58.762,188.955 52.661,190.205 52.305,190.281 52.295,190.277 	"/>
	<polyline fill="none" stroke="#31342B" stroke-width="2" stroke-miterlimit="10" points="91.617,188.17 86.538,189.215 
		80.43,190.461 74.329,191.711 68.219,192.957 62.535,194.123 62.526,194.121 62.119,194.209 	"/>
	<polyline fill="none" stroke="#31342B" stroke-width="2" stroke-miterlimit="10" points="89.258,194.588 83.777,195.711 
		77.676,196.961 72.753,197.973 	"/>
	<polyline fill="none" stroke="#31342B" stroke-width="2" stroke-miterlimit="10" points="87.125,200.961 86.899,201.006 
		82.977,201.811 	"/>
	<polyline fill="none" stroke="#31342B" stroke-width="2" stroke-miterlimit="10" points="52.846,190.488 52.836,190.484 
		52.661,190.205 49.314,184.955 48.006,182.912 48.01,182.904 	"/>
	<polyline fill="none" stroke="#31342B" stroke-width="2" stroke-miterlimit="10" points="62.119,194.209 61.916,193.895 
		58.762,188.955 55.414,183.703 52.066,178.453 50.564,176.102 	"/>
	<polyline fill="none" stroke="#31342B" stroke-width="2" stroke-miterlimit="10" points="53.121,169.289 54.818,171.951 
		58.166,177.201 61.523,182.457 64.872,187.707 68.219,192.957 70.995,197.303 71.005,197.309 	"/>
	<polyline fill="none" stroke="#31342B" stroke-width="2" stroke-miterlimit="10" points="80.079,200.727 80.069,200.723 
		77.676,196.961 74.329,191.711 70.973,186.457 67.624,181.205 64.267,175.951 60.918,170.701 57.566,165.436 55.681,162.477 	"/>
	<polyline fill="none" stroke="#31342B" stroke-width="2" stroke-miterlimit="10" points="87.125,200.961 86.995,200.754 
		83.777,195.711 80.43,190.461 77.072,185.205 73.724,179.955 70.377,174.705 67.019,169.451 63.676,164.189 60.318,158.936 
		58.233,155.676 58.237,155.666 	"/>
	<polyline fill="none" stroke="#31342B" stroke-width="2" stroke-miterlimit="10" points="89.522,193.887 86.538,189.215 
		83.186,183.949 79.834,178.709 76.48,173.445 73.133,168.193 69.775,162.939 66.427,157.689 63.08,152.438 60.796,148.854 	"/>
	<polyline fill="none" stroke="#31342B" stroke-width="2" stroke-miterlimit="10" points="92.046,187.027 89.285,182.699 
		85.934,177.457 82.59,172.197 79.232,166.943 75.885,161.691 72.526,156.438 69.179,151.188 65.831,145.936 63.354,142.041 	"/>
	<polyline fill="none" stroke="#31342B" stroke-width="2" stroke-miterlimit="10" points="65.907,135.24 68.578,139.422 
		71.932,144.686 75.279,149.938 78.636,155.191 81.984,160.441 85.343,165.695 88.689,170.945 92.037,176.197 92.048,176.201 
		94.574,180.16 	"/>
	<polyline fill="none" stroke="#31342B" stroke-width="2" stroke-miterlimit="10" points="97.098,173.301 94.79,169.695 
		91.441,164.445 88.085,159.191 84.738,153.941 81.389,148.689 78.031,143.436 74.679,138.172 71.326,132.93 68.456,128.424 
		68.46,128.414 	"/>
	<polyline fill="none" stroke="#31342B" stroke-width="2" stroke-miterlimit="10" points="99.616,166.449 97.538,163.203 
		94.186,157.939 90.838,152.689 87.48,147.436 84.131,142.184 80.775,136.93 77.427,131.678 74.08,126.428 71.015,121.635 	"/>
	<polyline fill="none" stroke="#31342B" stroke-width="2" stroke-miterlimit="10" points="73.487,114.667 73.572,114.8 
		76.834,119.918 80.192,125.172 83.54,130.422 86.889,135.672 90.241,140.938 93.589,146.188 96.946,151.441 100.294,156.693 
		102.145,159.582 	"/>
	<polyline fill="none" stroke="#31342B" stroke-width="2" stroke-miterlimit="10" points="104.664,152.732 103.047,150.191 
		99.689,144.936 96.341,139.688 92.997,134.426 92.988,134.422 89.637,129.182 86.292,123.922 82.935,118.666 79.588,113.416 
		76.23,108.162 76.126,107.997 	"/>
	<polyline fill="none" stroke="#31342B" stroke-width="2" stroke-miterlimit="10" points="107.191,145.865 105.803,143.68 
		102.455,138.43 99.098,133.176 95.75,127.926 92.401,122.674 89.045,117.42 85.697,112.169 82.34,106.915 78.991,101.665 
		78.684,101.186 	"/>
	<polyline fill="none" stroke="#31342B" stroke-width="2" stroke-miterlimit="10" points="81.241,94.375 81.744,95.162 
		85.092,100.414 88.449,105.668 91.797,110.918 95.145,116.168 98.502,121.422 101.85,126.676 105.207,131.93 108.552,137.188 
		109.715,139.006 	"/>
	<polyline fill="none" stroke="#31342B" stroke-width="2" stroke-miterlimit="10" points="112.242,132.139 111.307,130.678 
		107.959,125.428 104.602,120.172 101.255,114.922 97.906,109.672 94.55,104.417 91.205,99.157 87.854,93.916 84.496,88.662 
		83.8,87.564 	"/>
	<polyline fill="none" stroke="#31342B" stroke-width="2" stroke-miterlimit="10" points="86.357,80.752 87.253,82.151 
		90.596,87.411 93.954,92.665 97.305,97.906 100.65,103.166 104.007,108.42 107.354,113.671 110.712,118.926 114.06,124.176 
		114.766,125.279 	"/>
	<polyline fill="none" stroke="#31342B" stroke-width="2" stroke-miterlimit="10" points="88.915,73.939 90.014,75.653 
		93.354,80.899 96.71,86.154 100.058,91.405 100.066,91.409 103.406,96.656 106.763,101.91 110.107,107.169 113.464,112.423 
		116.812,117.674 117.289,118.42 	"/>
	<polyline fill="none" stroke="#31342B" stroke-width="2" stroke-miterlimit="10" points="119.816,111.551 119.567,111.164 
		116.22,105.913 112.863,100.659 109.516,95.409 106.166,90.159 102.811,84.903 99.462,79.653 96.114,74.402 92.758,69.148 
		91.47,67.136 91.474,67.127 	"/>
	<polyline fill="none" stroke="#31342B" stroke-width="2" stroke-miterlimit="10" points="94.026,60.325 95.51,62.646 
		98.857,67.897 102.215,73.151 105.563,78.402 108.92,83.656 112.268,88.906 115.615,94.159 118.973,99.413 122.32,104.663 
		122.34,104.693 	"/>
	<polyline fill="none" stroke="#31342B" stroke-width="2" stroke-miterlimit="10" points="124.864,97.834 121.726,92.91 
		118.377,87.66 115.02,82.406 111.672,77.156 108.324,71.905 104.971,66.64 101.619,61.399 98.266,56.136 96.586,53.513 	"/>
	<polyline fill="none" stroke="#31342B" stroke-width="2" stroke-miterlimit="10" points="99.143,46.702 99.139,46.711 
		101.015,49.643 104.365,54.884 107.72,60.149 111.066,65.399 114.424,70.654 117.771,75.905 121.12,81.155 124.477,86.409 
		127.387,90.975 	"/>
	<polyline fill="none" stroke="#31342B" stroke-width="2" stroke-miterlimit="10" points="107.728,49.326 110.476,53.637 
		113.832,58.892 117.18,64.143 120.533,69.406 123.872,74.653 123.883,74.658 127.229,79.908 129.914,84.106 129.91,84.115 	"/>
	<polyline fill="none" stroke="#31342B" stroke-width="2" stroke-miterlimit="10" points="132.443,77.262 129.981,73.406 
		126.634,68.156 123.28,62.892 119.929,57.651 116.73,52.637 116.566,52.383 	"/>
	<polyline fill="none" stroke="#31342B" stroke-width="2" stroke-miterlimit="10" points="134.965,70.38 132.747,66.9 
		129.391,61.646 126.043,56.394 125.768,55.963 	"/>
	<polyline fill="none" stroke="#31342B" stroke-width="2" stroke-miterlimit="10" points="137.494,63.534 135.49,60.394 
		134.778,59.279 	"/>
</g>
<rect x="79.463" y="131.302" transform="matrix(0.351 -0.9364 0.9364 0.351 -92.1184 176.94)" fill="#F68828" width="4.251" height="47.249"/>
<g>
	<path fill="#31342B" d="M61.085,146.572l41.433,15.533l-0.438,1.17l-41.434-15.531L61.085,146.572 M59.329,142.711l-2.546,6.789
		l47.052,17.639l2.546-6.789L59.329,142.711L59.329,142.711z"/>
</g>
<rect x="69.511" y="157.053" transform="matrix(0.3529 -0.9356 0.9356 0.3529 -122.6965 183.9357)" fill="#F68828" width="4.25" height="47.247"/>
<g>
	<path fill="#31342B" d="M51.146,172.279l41.4,15.621l-0.441,1.168l-41.4-15.619L51.146,172.279 M49.397,168.414l-2.559,6.783
		l47.014,17.738l2.56-6.783L49.397,168.414L49.397,168.414z"/>
</g>
<rect x="89.177" y="78.241" transform="matrix(0.3414 -0.9399 0.9399 0.3414 -22.376 160.1163)" fill="#E6E7E8" width="27.784" height="35.569"/>
<g>
	<path fill="#31342B" d="M91.99,78.818l30.613,11.119l-8.462,23.296l-30.613-11.119L91.99,78.818 M90.194,74.975l-10.51,28.935
		l36.252,13.167l10.511-28.935L90.194,74.975L90.194,74.975z"/>
</g>
<g>
	
		<rect x="8.247" y="194.658" transform="matrix(0.5029 -0.8643 0.8643 0.5029 -164.5238 110.2379)" fill="#F04C41" stroke="#31342B" stroke-miterlimit="10" width="10.672" height="7.007"/>
	
		<rect x="14.946" y="187.776" transform="matrix(0.5028 -0.8644 0.8644 0.5028 -156.6059 110.3079)" fill="#353D4C" stroke="#31342B" stroke-miterlimit="10" width="5.267" height="7.009"/>
	
		<rect x="13.334" y="175.785" transform="matrix(0.5029 -0.8643 0.8643 0.5029 -142.7599 110.3565)" fill="#B23025" stroke="#31342B" stroke-miterlimit="10" width="22.454" height="7.011"/>
	
		<rect x="20.425" y="149.085" transform="matrix(0.5029 -0.8643 0.8643 0.5029 -111.9564 110.5092)" fill="#F04C41" stroke="#31342B" stroke-miterlimit="10" width="39.348" height="7.01"/>
	
		<rect x="48.094" y="128.767" transform="matrix(0.5029 -0.8643 0.8643 0.5029 -88.5189 110.6272)" fill="#F68828" stroke="#31342B" stroke-miterlimit="10" width="7.649" height="7.009"/>
</g>
<g>
	
		<rect x="21.478" y="195.321" transform="matrix(0.4529 -0.8916 0.8916 0.4529 -162.5963 132.6888)" fill="#F04C41" stroke="#31342B" stroke-miterlimit="10" width="10.673" height="7.008"/>
	
		<rect x="27.809" y="188.219" transform="matrix(0.4531 -0.8915 0.8915 0.4531 -154.2662 131.9984)" fill="#353D4C" stroke="#31342B" stroke-miterlimit="10" width="5.267" height="7.007"/>
	
		<rect x="25.479" y="175.85" transform="matrix(0.4529 -0.8916 0.8916 0.4529 -139.8248 130.8556)" fill="#B23025" stroke="#31342B" stroke-miterlimit="10" width="22.455" height="7.009"/>
	
		<rect x="31.043" y="148.305" transform="matrix(0.4529 -0.8915 0.8915 0.4529 -107.6003 128.2672)" fill="#F04C41" stroke="#31342B" stroke-miterlimit="10" width="39.346" height="7.01"/>
	
		<rect x="57.971" y="127.073" transform="matrix(0.4529 -0.8916 0.8916 0.4529 -82.7767 126.2673)" fill="#F68828" stroke="#31342B" stroke-miterlimit="10" width="7.04" height="7.01"/>
</g>
<g>
	
		<rect x="152.864" y="194.588" transform="matrix(0.277 -0.9609 0.9609 0.277 -75.9614 295.232)" fill="#F04C41" stroke="#31342B" stroke-miterlimit="10" width="10.67" height="7.008"/>
	
		<rect x="157.78" y="186.931" transform="matrix(0.2769 -0.9609 0.9609 0.2769 -66.9905 291.8516)" fill="#353D4C" stroke="#31342B" stroke-miterlimit="10" width="5.269" height="7.009"/>
	
		<rect x="153.016" y="173.603" transform="matrix(0.277 -0.9609 0.9609 0.277 -51.4305 285.8644)" fill="#B23025" stroke="#31342B" stroke-miterlimit="10" width="22.454" height="7.01"/>
	<polygon fill="#F04C41" stroke="#31342B" stroke-miterlimit="10" points="163.993,165.352 174.893,127.541 181.639,129.482 
		170.729,167.293 	"/>
	
		<rect x="175.503" y="121.341" transform="matrix(0.277 -0.9609 0.9609 0.277 9.6877 262.5745)" fill="#F68828" stroke="#31342B" stroke-miterlimit="10" width="7.65" height="7.017"/>
</g>
<g>
	
		<rect x="164.862" y="124.849" transform="matrix(-0.3623 0.9321 -0.9321 -0.3623 351.4947 16.2213)" fill="#F04C41" stroke="#31342B" stroke-miterlimit="10" width="10.672" height="7.008"/>
	
		<rect x="164.666" y="132.269" transform="matrix(-0.3622 0.9321 -0.9321 -0.3622 354.4546 29.0163)" fill="#353D4C" stroke="#31342B" stroke-miterlimit="10" width="5.268" height="7.009"/>
	
		<rect x="151.053" y="145.188" transform="matrix(-0.3622 0.9321 -0.9321 -0.3622 359.6564 51.2916)" fill="#B23025" stroke="#31342B" stroke-miterlimit="10" width="22.454" height="7.01"/>
	
		<rect x="131.415" y="173.998" transform="matrix(-0.3622 0.9321 -0.9321 -0.3622 371.2648 100.9643)" fill="#F04C41" stroke="#31342B" stroke-miterlimit="10" width="39.348" height="7.01"/>
	
		<rect x="138.756" y="195.916" transform="matrix(-0.3622 0.9321 -0.9321 -0.3622 380.1017 138.7383)" fill="#F68828" stroke="#31342B" stroke-miterlimit="10" width="7.65" height="7.009"/>
</g>
<g>
	
		<rect x="181.984" y="120.663" transform="matrix(-0.1524 0.9883 -0.9883 -0.1524 338.5801 -42.0442)" fill="#F04C41" stroke="#31342B" stroke-miterlimit="10" width="10.671" height="7.008"/>
	<polygon fill="#353D4C" stroke="#31342B" stroke-miterlimit="10" points="183.045,128.896 182.247,134.104 189.172,135.17 
		189.971,129.965 	"/>
	<polygon fill="#B23025" stroke="#31342B" stroke-miterlimit="10" points="182.247,134.104 178.82,156.297 185.754,157.363 
		189.172,135.17 	"/>
	
		<rect x="159.62" y="172.78" transform="matrix(-0.1523 0.9883 -0.9883 -0.1523 380.8333 25.9389)" fill="#F04C41" stroke="#31342B" stroke-miterlimit="10" width="39.346" height="7.018"/>
	<polygon fill="#F68828" stroke="#31342B" stroke-miterlimit="10" points="172.736,195.789 171.664,202.748 178.596,203.813 
		179.672,196.855 	"/>
</g>
<g>
	<g>
		<path fill="#F7941E" d="M198.765,76.55c-0.702-0.004-1.417-0.157-2.122-0.455c-6.021-2.532-13.393-16.65-13.41-29.52v-0.078
			l-0.009-0.079c-1.312-12.239,0.87-23.864,5.427-28.927c1.934-2.147,3.889-2.598,5.188-2.598c3.756,0.018,5.99,2.744,7.963,5.148
			c2.146,2.612,3.587,4.213,6.021,4.227c5.625,0,11.47-7.934,11.527-8.014l0.675-0.937l104.129-8.946l0.428,4.981L222.7,20.106
			l-0.4,0.481c-2.174,2.61-7.934,8.68-14.453,8.68c-4.95-0.024-7.692-3.358-9.896-6.038c-1.552-1.891-2.568-3.049-3.686-3.291
			l-0.54-0.117l-0.485,0.262c-3.037,1.631-6.503,12.573-5.021,26.005l0.02,0.38c-0.058,10.942,5.868,21.49,9.202,24.294l1.04,0.875
			l1.286-1.263c3.401-3.442,6.601-6.678,12.28-6.678c5.673,0.029,9.105,0.292,14.588,5.373l0.484,0.449l101.705-8.395l0.408,4.983
			l-104.014,8.586l-0.818-0.829c-5.082-5.134-7.346-5.145-12.307-5.169c-3.645,0-5.68,2.063-8.764,5.186
			c-0.468,0.471-0.89,0.896-1.328,1.333c-0.881,0.873-1.99,1.333-3.213,1.333h-0.022V76.55z"/>
		<path fill="#414042" d="M322.786,7.993l0.172,1.993l-99.765,8.572l-1.247,0.107l-0.802,0.962c-2.038,2.448-7.415,8.14-13.343,8.14
			c-4.196-0.021-6.588-2.927-8.704-5.502c-1.748-2.13-2.925-3.448-4.519-3.792l-1.08-0.233l-0.975,0.523
			c-3.936,2.115-7.283,13.885-5.811,27.412l0.018,0.29c-0.025,12.021,6.43,22.663,9.739,25.447l2.081,1.751l1.945-1.899
			c0.073-0.073,0.147-0.146,0.221-0.22l0.127-0.127c3.297-3.335,6.145-6.216,11.197-6.216h0.067
			c5.376,0.027,8.418,0.261,13.502,4.973l0.97,0.898l1.316-0.109l99.55-8.217l0.164,1.993L225.79,73.145l-0.328-0.333
			c-5.295-5.349-7.924-5.586-13.363-5.613h-0.043h-0.008c-4.229,0-6.562,2.362-9.783,5.627l-0.055,0.054
			c-0.41,0.414-0.83,0.837-1.269,1.272c-0.603,0.596-1.326,0.898-2.168,0.898c-0.506-0.003-1.026-0.116-1.554-0.338
			c-4.899-2.06-12.473-15.071-12.489-28.138v-0.158l-0.019-0.157c-1.248-11.656,0.828-23.073,5.052-27.763
			c1.256-1.395,2.625-2.102,4.096-2.102c2.804,0.014,4.577,1.915,6.781,4.602c2.01,2.445,3.907,4.754,7.207,4.772
			c6.351,0,12.454-8.278,12.723-8.645l0.267-0.37L322.786,7.993 M325.519,4.747l-106.312,9.134l-1.07,1.489
			c-1.396,1.916-6.287,7.397-10.287,7.397c-0.008,0-0.014,0-0.02,0c-1.683-0.009-2.775-1.128-4.871-3.678
			c-2.074-2.529-4.662-5.675-9.082-5.697c-0.015,0-0.026,0-0.039,0c-1.613,0-4.004,0.542-6.303,3.095
			c-4.839,5.375-7.158,17.443-5.804,30.09c0.021,13.813,7.822,28.165,14.328,30.899c0.899,0.38,1.813,0.567,2.696,0.573
			c0.011,0,0.021,0,0.031,0c1.592,0,3.09-0.602,4.267-1.768c0.465-0.459,0.907-0.907,1.342-1.345
			c3.24-3.283,4.804-4.739,7.651-4.739c0.014,0,0.024,0,0.037,0c4.806,0.023,6.604,0.033,11.246,4.724l1.313,1.327l106.204-8.768
			l-0.653-7.973l-102.542,8.464c-5.862-5.433-9.813-5.744-15.524-5.773c-0.027,0-0.057,0-0.084,0c-6.312,0-9.881,3.617-13.338,7.114
			c-0.101,0.1-0.199,0.203-0.304,0.303c-2.851-2.397-8.726-12.343-8.67-23.232l-0.024-0.459c-1.535-13.908,2.26-23.456,4.237-24.519
			c0.687,0.148,1.869,1.59,2.832,2.763c2.279,2.771,5.396,6.571,11.011,6.599c0.02,0,0.039,0,0.058,0
			c7.067,0,13.099-6.21,15.604-9.22l102.754-8.829L325.519,4.747L325.519,4.747z"/>
	</g>
	<line fill="none" stroke="#414042" stroke-width="2" stroke-miterlimit="10" x1="319.363" y1="11.296" x2="324.021" y2="61.953"/>
	<path fill="#E6E7E8" d="M322.709,60.205l-95.229,7.698c-5.86-5.432-9.812-5.745-15.526-5.772
		c-6.356-0.031-9.949,3.601-13.418,7.114c-0.104,0.101-0.203,0.201-0.303,0.303c-2.854-2.398-8.727-12.344-8.674-23.231l-0.025-0.46
		c-1.537-13.907,2.26-23.457,4.24-24.52c0.684,0.148,1.869,1.59,2.83,2.763c2.281,2.772,5.4,6.572,11.012,6.599
		c7.092,0.034,13.148-6.2,15.664-9.221l95.441-8.063"/>
	<line fill="none" stroke="#414042" stroke-miterlimit="10" x1="320.084" y1="19.33" x2="305.258" y2="20.724"/>
	<line fill="none" stroke="#414042" stroke-miterlimit="10" x1="322.284" y1="47.89" x2="305.12" y2="49.39"/>
	<line fill="none" stroke="#414042" stroke-miterlimit="10" x1="323.133" y1="53.311" x2="296.42" y2="55.681"/>
	<line fill="none" stroke="#414042" stroke-miterlimit="10" x1="187.85" y1="53.149" x2="200.999" y2="51.455"/>
	<line fill="none" stroke="#414042" stroke-miterlimit="10" x1="189.997" y1="56.859" x2="216.586" y2="53.29"/>
	<path fill="#414042" d="M291.028,36.278l-49.593,5.448C241.436,41.726,264.469,31.308,291.028,36.278z"/>
	<path fill="#414042" d="M271.197,35.537c1.396,0.005,2.233,0.074,2.233,0.074c1.099,0.089,2.055,1.059,2.128,2.158l0.961,14.352
		c0.048,0.739-0.241,1.152-0.71,1.148c-0.229,0-0.497-0.099-0.793-0.307l-5.948-4.204c-0.354-0.255-0.771-0.377-1.192-0.377
		c-0.633-0.005-1.267,0.271-1.681,0.791l-4.821,6.107c-0.287,0.367-0.568,0.543-0.812,0.543c-0.326-0.003-0.567-0.333-0.638-0.962
		l-1.832-17.495C263.163,35.763,268.344,35.522,271.197,35.537L271.197,35.537z"/>
	<path fill="#F04C41" d="M271.187,37.538c-2.298-0.011-6.567,0.153-10.929,1.286l1.355,12.928l3.014-3.817
		c0.772-0.979,1.992-1.56,3.26-1.555c0.846,0.005,1.654,0.262,2.338,0.744l4.15,2.935l-0.813-12.156
		c-0.007-0.107-0.187-0.288-0.291-0.297C273.264,37.604,272.474,37.545,271.187,37.538"/>
</g>
<path fill="#31342B" d="M352.954,212.893c0,4.59-4.563,8.344-10.139,8.344H10.14c-5.577,0-10.14-3.754-10.14-8.344
	c0-4.588,4.563-8.344,10.14-8.344h332.675C348.391,204.549,352.954,208.305,352.954,212.893z"/>
</svg>
